<svg xmlns="http://www.w3.org/2000/svg" id="Layer_1" viewBox="0 0 256 256" width="256" height="256"><defs><style>.cls-1{fill:#231f20}</style></defs><path d="M69.16 183.36l-.41-.61c-.1-.15-10.12-15.19-19.92-30.17-20.21-30.89-19.89-31.3-19.25-32.11l.45-.57.74.24c.76 0 3.3-2.89 5.24-6.18l1.72 1c-1.4 2.38-3.8 6-6 6.91C35 128 55.7 159.56 70 181l60.8-17.86.33.13a37.79 37.79 0 0 0 12.53 2.41c8.79.11 15.12-3.63 18.7-11l.18-.39L224.07 135c-1.27-1.83-3.95-5.46-6.1-6.78l1.05-1.71c3.3 2 7.3 8.24 7.47 8.5l.7 1.1L164 156c-8.9 17.61-30.3 10.42-33.26 9.32z" class="cls-1"/><path d="M69 184l-.61-.92c-.09-.13-10.12-15.18-19.93-30.17-20.4-31.19-20.13-31.54-19.22-32.7l.66-.84 1 .31c.54-.18 2.72-2.49 4.75-5.92l.25-.43 2.59 1.52-.26.43c-1.48 2.52-3.63 5.65-5.72 6.87 3.66 6.62 21.92 34.54 37.78 58.35l60.62-17.81.49.2a38 38 0 0 0 12.34 2.37h.26c8.41 0 14.42-3.61 17.88-10.73l.28-.58.2-.06 60.87-19.16c-1.26-1.77-3.66-4.92-5.56-6.09l-.43-.26 1.57-2.55.43.26c3.44 2.11 7.46 8.39 7.63 8.65l1.05 1.65-63.64 20c-9 17.53-30.48 10.57-33.62 9.43zm-38.79-63.52l-.24.3c-.51.65 2.16 5.35 19.28 31.53 9.8 15 19.83 30 19.92 30.16l.2.31 61.36-18 .16.05c2.42.9 23.87 8.26 32.64-9.07l.09-.19.2-.06 62.6-19.71-.35-.55c0-.06-3.74-5.82-6.9-8.06l-.52.85c2.11 1.51 4.53 4.77 5.83 6.65l.38.55-62 19.5-.09.2c-3.64 7.49-9.95 11.29-18.78 11.29h-.38a38.5 38.5 0 0 1-12.61-2.46l-.17-.07-61 17.91-.2-.3c-11.71-17.57-34.77-52.56-38.28-59.19l-.25-.47.5-.22c1.49-.65 3.43-2.87 5.49-6.28l-.87-.51c-1.58 2.58-4.19 6-5.4 6h-.12z" class="cls-1"/><path d="M78.15 156.4l-.45-.74-36.83-60.2 2.62.9c.14 0 14.6 4.81 40.6-2.66h.09c10.46-1.89 16.35 1.25 19.34 3.94a7.75 7.75 0 0 1 .88-3.35c1.75-3.33 5.89-5.49 12.3-6.4 16.87-2.41 32.16-12.3 32.71-14.33l.49-1.78 1.23 1.38c.22.25 22.73 25.24 50.68 23.43l1.09-.07v1.1a19.28 19.28 0 0 1-3.75 9.83C195.87 112 189 117.64 175 118.9c-12.58 1.13-22 5.89-26.52 13.39a18 18 0 0 0-1.44 16.11l-1.85.75c-.09-.18-1.32-2.76-5.82-4.58-8-3.23-24.92-3.86-60.45 11.48zM45.31 98.89l33.64 55c35.84-15.35 53.17-14.52 61.4-11.09a16.41 16.41 0 0 1 3.67 2.08 20.42 20.42 0 0 1 2.78-13.61c4.86-8.07 14.82-13.16 28-14.35 21.47-1.94 25.24-14.48 25.89-18.28-25.2 1-45.78-18.65-50.22-23.22-3.73 4.27-18.8 12.33-33.54 14.44-5.66.8-9.4 2.65-10.81 5.35a6.66 6.66 0 0 0 0 5.62l-1.79.9c-.18-.36-4.68-8.78-19.74-6.08-20.69 5.92-34.06 4.35-39.28 3.24z" class="cls-1"/><path d="M78 157L39.71 94.54l3.94 1.35c.15 0 14.54 4.73 40.3-2.67h.12c9.77-1.76 15.67.75 19 3.43A8.08 8.08 0 0 1 104 94c1.82-3.49 6.09-5.73 12.67-6.67 17-2.43 31.87-12.4 32.3-14l.73-2.67 1.84 2.07c.22.25 22.65 25 50.28 23.26l1.64-.1v1.64a19.85 19.85 0 0 1-3.84 10.11c-3.32 4.62-10.25 10.4-24.46 11.68-12.41 1.11-21.69 5.78-26.13 13.15a17.46 17.46 0 0 0-1.41 15.66l.2.46-.46.23-2.32.94-.18-.47c-.06-.11-1.22-2.58-5.55-4.34-7.88-3.19-24.7-3.79-60.07 11.48zM42 96.38l36.33 59.39.4-.17c35.69-15.41 52.79-14.76 60.84-11.5 3.76 1.53 5.34 3.58 5.87 4.45l1-.39a18.54 18.54 0 0 1 1.64-16.16c4.61-7.64 14.16-12.48 26.9-13.63 13.83-1.24 20.54-6.81 23.73-11.26a18.79 18.79 0 0 0 3.66-9.56v-.54h-.55c-28.13 1.82-50.86-23.34-51.09-23.6l-.61-.69-.24.89c-.7 2.54-16.46 12.31-33.13 14.69-6.25.89-10.26 3-11.93 6.14a7.36 7.36 0 0 0-.82 3.14v1.07l-.8-.72c-3.05-2.75-8.8-5.64-18.91-3.82h-.07c-26.22 7.6-40.75 2.77-40.89 2.72zm36.73 58.13L44.28 98.16l1.13.24c4.81 1 18.24 2.72 39-3.24 13.71-2.46 18.92 4.1 20.07 5.9l1-.48a7.09 7.09 0 0 1 .25-5.62c1.49-2.84 5.36-4.78 11.18-5.61 14.27-2 29.45-9.94 33.23-14.27l.36-.41.38.39c3.9 4 24.66 24 49.84 23.07h.62l-.11.6c-.66 3.89-4.53 16.73-26.34 18.69-13.06 1.18-22.89 6.19-27.66 14.12a19.91 19.91 0 0 0-2.72 13.27l.19 1.22-1-.75a16.74 16.74 0 0 0-3.57-2c-8.12-3.38-25.3-4.21-61 11.09zM46.33 99.6l32.82 53.65c35.76-15.26 53.12-14.37 61.39-10.92a17.66 17.66 0 0 1 2.84 1.48 21 21 0 0 1 3-12.81c4.94-8.2 15-13.39 28.43-14.59 20.07-1.81 24.41-13 25.33-17.26H199c-24.09 0-43.79-18.33-48.43-23-4.47 4.6-19.18 12.17-33.48 14.21-5.49.79-9.1 2.55-10.43 5.09a6.26 6.26 0 0 0-.06 5.17l.22.44-2.67 1.35-.23-.45c-.17-.34-4.49-8.44-19.2-5.81-19.58 5.59-32.72 4.46-38.39 3.45z" class="cls-1"/><path d="M80.15 167.31l-.54-1.05c-10.11-20.08-24.42-40.8-42.54-61.58-2.13-2.44-2.3-2.64-1.63-3.33a1 1 0 0 1 1.49 0c1.37 1.11 6 .56 8.94-.19l.5 1.94a26.47 26.47 0 0 1-7.28.85c17.7 20.38 31.76 40.71 41.82 60.44 3-1.65 13.43-6.17 41.5-9.35l.22 2c-33.33 3.77-41.45 9.52-41.52 9.58z" class="cls-1"/><path d="M80 168.07l-.81-1.58c-10.11-20.05-24.41-40.73-42.5-61.49-2.15-2.47-2.6-3-1.61-4a1.53 1.53 0 0 1 2.16 0c1.07.86 5.26.55 8.5-.29l.49-.13.75 2.91-.49.12a29.33 29.33 0 0 1-6.29.9c17.25 20 31 39.88 40.92 59.23 3.72-1.91 14.52-6.14 41.23-9.17h.5l.33 3-.49.05C89.74 161.25 81.48 167 81.4 167zm-43.86-66.53a.47.47 0 0 0-.34.15c-.34.36-.35.37 1.64 2.66 18.15 20.82 32.49 41.57 42.62 61.65l.27.53.48-.35c.07-.06 8.08-5.82 41.27-9.62l-.11-1c-27.35 3.14-37.65 7.5-40.82 9.24l-.45.25-.24-.46c-10-19.69-24.08-40-41.75-60.34l-.78-.9 1.19.08a25.61 25.61 0 0 0 6.64-.73l-.25-1c-2.3.53-7.24 1.31-8.9 0a.74.74 0 0 0-.47-.16z" class="cls-1"/><path d="M94.21 156.12l-.38-2s16.55-3.15 32.78-6.26c4.58-.88 12.77-1.45 16.14 4.58.24.42.35.67.35.67l-1.82.83s-.1-.21-.27-.52c-2.77-4.94-10-4.37-14-3.6z" class="cls-1"/><path d="M93.81 156.7l-.56-2.94.49-.1 32.78-6.26c4.71-.91 13.14-1.48 16.67 4.82.25.45.37.71.37.71l.2.46-2.71 1.23-.21-.43c0-.06-.12-.23-.27-.5-2.61-4.66-9.57-4.1-13.49-3.35l-32.78 6.27zm.61-2.15l.19 1c2.85-.54 17.69-3.37 32.28-6.17 4.18-.8 11.63-1.36 14.56 3.84l.06.11.91-.41-.1-.19c-3.23-5.75-11.17-5.18-15.62-4.33z" class="cls-1"/><path d="M135.33 159.36s10.56-15.51 23.5-8.81c1.85 2.21-10.56 11.72-23.5 8.81z" class="cls-1"/><path d="M140.26 160.4a22.88 22.88 0 0 1-5-.55l-.72-.16.41-.61c.11-.16 11-15.79 24.15-9l.15.12c.32.37.54 1.06-.14 2.19-2.11 3.36-10.11 8.01-18.85 8.01zm-4.07-1.4c10.46 2 20.13-4 22-7.14.26-.41.36-.76.27-1-10.87-5.45-20.15 5.41-22.27 8.14z" class="cls-1"/><path d="M140.23 160.89a23.6 23.6 0 0 1-5.12-.55l-1.44-.32.83-1.22c.11-.16 11.22-16.17 24.79-9.14l.18.09.13.16c.34.41.78 1.31-.11 2.77-2.09 3.42-10.3 8.21-19.26 8.21zm-3.12-2.21a25.72 25.72 0 0 0 19-5.29 6 6 0 0 0 1.82-2.15c-9.67-4.68-18.06 4.06-20.82 7.44z" class="cls-1"/><path d="M140.23 161.39a24.23 24.23 0 0 1-5.23-.56l-2.16-.49 1.25-1.82c.11-.17 11.42-16.56 25.43-9.3l.33.21.13.16c.35.41 1 1.56-.06 3.35-2.11 3.45-10.33 8.45-19.69 8.45zm-5.73-1.7l.72.16a22.89 22.89 0 0 0 5 .54c8.65 0 16.8-4.64 18.84-8 .68-1.13.46-1.82.14-2.19l-.15-.12c-13.18-6.83-24 8.81-24.15 9zm5.86-.27a22.12 22.12 0 0 1-3.32-.25l-.87-.13.55-.68c2.47-3 11.31-12.47 21.47-7.57l.41.2-.15.42a6.23 6.23 0 0 1-2 2.36 26.8 26.8 0 0 1-16.09 5.65zm-2.28-1.12a25.48 25.48 0 0 0 17.76-5.3 7.78 7.78 0 0 0 1.45-1.53c-8.51-3.73-15.89 3-19.21 6.83z" class="cls-1"/><path d="M124.69 93.67h2v62.73h-2z" class="cls-1" transform="rotate(-40.73 125.696 125.034)"/><path d="M145.34 150.16l-41.58-48.29 2.27-2 41.59 48.29zM105.17 102l40.28 46.78.76-.66-40.28-46.77zm-29.44 73.47v-2.63c-7.38-10.23-41.52-57.78-41.79-62.41l-.06-1.12 1.12.07c1.07.06 4.12-.1 5.27-1.63l1.6 1.2c-1.36 1.82-3.95 2.29-5.57 2.4 3.18 6.9 26.35 40 41.24 60.58l.19.26v.12c17.52-7.79 55.78-13.68 57.45-13.94l.3 2c-.42.06-41.82 6.44-58.32 14.42z" class="cls-1"/><path d="M75.23 176.26V173c-9.87-13.68-41.51-57.89-41.79-62.54l-.1-1.69 1.69.11c.94.05 3.84-.1 4.84-1.43l.3-.4 2.4 1.8-.3.4a7.52 7.52 0 0 1-5.2 2.53c4.18 8.13 27 40.68 40.87 59.86 17.78-7.72 55.53-13.54 57.14-13.78l.49-.08.46 3-.5.07c-.41.07-41.75 6.44-58.17 14.38zm-40.82-66.42v.56c.21 3.5 22.59 35.66 41.69 62.15l.1.13v2l.72-.35c15.57-7.53 53.2-13.64 58-14.39l-.15-1c-4.82.76-40.22 6.44-56.83 13.82l-.7.32v-.73l-.1-.13c-14.82-20.54-38-53.65-41.28-60.66l-.31-.65.73-.06a7.74 7.74 0 0 0 4.87-1.85l-.81-.61c-1.72 1.64-5.33 1.46-5.37 1.46zM154.2 141.8l-1.45-1.38c15.89-16.71 24.78-17 33.38-17.38a51.93 51.93 0 0 0 7.83-.7c9.17-1.71 15.71-9.63 18.11-13h-15v-2h18.6l-.9 1.51c-.32.53-7.95 13.11-20.49 15.45a55.21 55.21 0 0 1-8.11.73c-8.54.34-16.65.65-31.97 16.77z" class="cls-1"/><path d="M154.22 142.5l-2.17-2.06.34-.36c16-16.86 25-17.2 33.72-17.54a51.7 51.7 0 0 0 7.75-.69c8.34-1.56 14.49-8.39 17.23-12h-14.48v-3h20l-1.35 2.26c-.32.55-8.06 13.31-20.83 15.69a55 55 0 0 1-8.19.74c-8.47.33-16.47.63-31.66 16.6zm-.76-2.1l.72.69c15.24-15.91 23.39-16.22 32-16.55a52.76 52.76 0 0 0 8-.73c12.33-2.3 19.84-14.68 20.15-15.21l.45-.75h-17.17v1h15.44l-.57.79c-2.43 3.38-9.08 11.45-18.43 13.19a51.7 51.7 0 0 1-7.9.71c-8.44.33-17.15.66-32.69 16.86z" class="cls-1"/><path d="M167.33 141.89l-1.24-1.56 1-.79c5.36-4.3 10.89-8.75 24.52-10.7 6.57-.94 20.62-9.07 26.63-12.7l-9.46-.32.07-2 16 .54-2.75 1.73c-.86.55-21.37 13.46-30.24 14.73-13.09 1.88-18.4 6.15-23.54 10.28z" class="cls-1"/><path d="M167.25 142.6l-1.87-2.35 1.37-1.1c5.41-4.34 11-8.83 24.76-10.8 6-.86 18.56-7.95 25-11.77l-8.27-.27.1-3 18.16.6-4.12 2.61c-.87.55-21.46 13.51-30.44 14.8-13 1.85-18.21 6.08-23.3 10.17zm-.46-2.19l.62.78.59-.48c5.2-4.17 10.57-8.49 23.79-10.38 8.77-1.26 29.18-14.11 30.05-14.66l1.37-.87-13.91-.46v1l10.64.35-1.44.88c-5.84 3.52-20.13 11.81-26.82 12.77-13.49 1.93-19 6.33-24.27 10.59z" class="cls-1"/><path d="M159.19 151.48l-.72-1.86 63.37-24.7-8.34-4.22.9-1.78 12.34 6.23-67.55 26.33z" class="cls-1"/><path d="M158.91 152.13l-1.09-2.8 62.8-24.47-7.79-3.94 1.35-2.67 13.79 7zm.2-2.23l.37.93 66-25.74-10.9-5.5-.45.89 8.9 4.49z" class="cls-1"/></svg>