<svg xmlns="http://www.w3.org/2000/svg" width="256" height="256" viewBox="0 0 256 256"><g fill="#231f20"><path d="M111.85 211.64A85.64 85.64 0 1 1 197.49 126a85.74 85.74 0 0 1-85.64 85.64zm0-166.28A80.64 80.64 0 1 0 192.49 126a80.72 80.72 0 0 0-80.64-80.64z"/><path d="M111.85 212.14A86.14 86.14 0 1 1 198 126a86.23 86.23 0 0 1-86.15 86.14zm0-166.28A80.14 80.14 0 1 0 192 126a80.23 80.23 0 0 0-80.15-80.14z"/><path d="M88.74 182.08a12.43 12.43 0 1 1 12.43-12.42 12.43 12.43 0 0 1-12.43 12.42zm0-20.85a8.43 8.43 0 1 0 8.43 8.43 8.44 8.44 0 0 0-8.43-8.43z"/><path d="M88.74 183.08a13.43 13.43 0 1 1 13.43-13.42 13.43 13.43 0 0 1-13.43 13.42zm0-24.85a11.43 11.43 0 1 0 11.43 11.43 11.44 11.44 0 0 0-11.43-11.43zm0 20.85a9.43 9.43 0 1 1 9.43-9.42 9.44 9.44 0 0 1-9.43 9.42zm0-16.85a7.43 7.43 0 1 0 7.43 7.43 7.43 7.43 0 0 0-7.43-7.43zm64 19.85a12.43 12.43 0 1 1 12.43-12.42 12.43 12.43 0 0 1-12.43 12.42zm0-20.85a8.43 8.43 0 1 0 8.43 8.43 8.44 8.44 0 0 0-8.43-8.43z"/><path d="M152.74 183.08a13.43 13.43 0 1 1 13.43-13.42 13.43 13.43 0 0 1-13.43 13.42zm0-24.85a11.43 11.43 0 1 0 11.43 11.43 11.44 11.44 0 0 0-11.43-11.43zm0 20.85a9.43 9.43 0 1 1 9.43-9.42 9.44 9.44 0 0 1-9.43 9.42zm0-16.85a7.43 7.43 0 1 0 7.43 7.43 7.43 7.43 0 0 0-7.43-7.43z"/><path d="M150 161.23H87.32L61 85.17H48.07a2 2 0 0 1 0-4h15.75l26.35 76.06H150a2 2 0 0 1 0 4z"/><path d="M150 162.23H86.61L60.26 86.17H48.07a3 3 0 0 1 0-6h16.46l26.35 76.06H150a3 3 0 0 1 0 6zm-62-2h62a1 1 0 0 0 0-2H89.45L63.11 82.17h-15a1 1 0 0 0 0 2h13.57z"/><path d="M158.74 143.13H82.61l-14-41.6 105.93-1.41zm-73.25-4H156l12.84-34.94-94.63 1.26z"/><path d="M159.44 144.13H81.89l-14.66-43.59L176 99.1zm-76.11-2H158l15.07-41L70 102.51zm73.31-2H84.77l-12-35.66 97.45-1.3zm-70.43-2h69l12.1-32.92-91.8 1.22z"/><path d="M78.32 123.65a2 2 0 0 1 0-4l86.35-.45a2 2 0 0 1 0 4z"/><path d="M78.33 124.65a3 3 0 0 1-3-3 3 3 0 0 1 .87-2.13 3 3 0 0 1 2.11-.89l86.35-.45a3 3 0 0 1 2.15 5.11 3 3 0 0 1-2.12.89zm86.34-4.45l-86.36.45a1 1 0 0 0 0 2l86.34-.45a1 1 0 1 0 0-2z"/><path d="M133.36 143.13a1.67 1.67 0 0 1-.31 0 2 2 0 0 1-1.67-2.28l5.66-37a2 2 0 0 1 4 .61l-5.67 37a2 2 0 0 1-2.01 1.67z"/><path d="M133.36 144.13a3.55 3.55 0 0 1-.46 0 3 3 0 0 1-2.51-3.42l5.66-37a3 3 0 0 1 5.39-1.32 3 3 0 0 1 .54 2.23l-5.66 37a3 3 0 0 1-2.96 2.51zm5.66-41a1 1 0 0 0-1 .85l-5.66 37a1 1 0 1 0 2 .31l5.67-37a1 1 0 0 0-.19-.75 1 1 0 0 0-.65-.39zm-32.32 40a2 2 0 0 1-2-1.73l-5-37a2 2 0 0 1 4-.53l5 37a2 2 0 0 1-1.72 2.25z"/><path d="M106.7 144.13a3 3 0 0 1-3-2.59l-5-37a3 3 0 0 1 6-.81l5 37a3 3 0 0 1-2.57 3.38 3 3 0 0 1-.43.02zm-5-41h-.14a1 1 0 0 0-.84 1.13l5 37a1 1 0 0 0 1.13.85 1 1 0 0 0 .85-1.12l-5-37a1 1 0 0 0-1-.83z"/></g></svg>