<svg xmlns="http://www.w3.org/2000/svg" id="Layer_1" viewBox="0 0 256 256" width="256" height="256"><defs><style>.cls-1{fill:#231f20}</style></defs><path d="M131.1 221.69l-58.78-53L74 77l59.41-42.65L183.68 82v.44L182 183.68zm-56.77-53.91l56.89 51.32L180 182.66l1.65-99.77-48.44-46L76 78z" class="cls-1"/><path d="M131 223.63l-60.2-54.32 1.7-93.13 61-43.81 51.65 49v1.1l-1.68 101.93zm-55.15-56.51l55.46 50 47.22-35.26 1.63-98.38-47.06-44.64-55.64 39.94z" class="cls-1"/><path d="M147.56 90.27H95.41L74.49 78.35l.99-1.74 20.46 11.66h51.48l35.08-4.99.28 1.98-35.22 5.01z" class="cls-1"/><path d="M147.67 91.77H95.01L72.45 78.91l2.47-4.34 21.42 12.2h50.98l36.46-5.19.7 4.95-36.81 5.24z" class="cls-1"/><path d="M147.94 188.3H93.46l1.22-99.35 37.82-53.92 1.64 1.15-37.47 53.41-1.19 96.71h52.28l33.11-5.8.34 1.97-33.27 5.83z" class="cls-1"/><path d="M148.07 189.8H91.94l1.25-101.33 38.94-55.53 4.1 2.87-38.06 54.27L97 184.8h50.63l34.46-6.03.86 4.92-34.88 6.11z" class="cls-1"/><path d="M132.05 220.85l-1.79-.9 16.59-32.89-.36-97.67-11.78-51.32 1.95-.44 11.83 51.53v.11l.36 98.26-.11.22-16.69 33.1z" class="cls-1"/><path d="M132.71 222.86l-4.46-2.25 17.1-33.9-.35-97.15-12.09-52.61 4.87-1.12 12.21 53.44.36 98.62-.27.54-17.37 34.43z" class="cls-1"/></svg>