<svg xmlns="http://www.w3.org/2000/svg" id="Layer_1" viewBox="0 0 256 256" width="256" height="256"><defs><style>.cls-1{fill:#231f20}</style></defs><path d="M122.53 211.66A85.64 85.64 0 1 1 208.17 126a85.74 85.74 0 0 1-85.64 85.66zm0-166.28A80.64 80.64 0 1 0 203.17 126a80.73 80.73 0 0 0-80.64-80.62z" class="cls-1"/><path d="M122.53 212.66A86.64 86.64 0 1 1 209.17 126a86.74 86.74 0 0 1-86.64 86.66zm0-166.28A79.64 79.64 0 1 0 202.17 126a79.73 79.73 0 0 0-79.64-79.62z" class="cls-1"/><path d="M107 208.89v-67.12H93.08v-24.4H107s-8.71-61.59 57.53-46.2l-.43 24.4s-20.16-5-23.35 4.2a18.25 18.25 0 0 0-1.38 5.08l-.55 13.39 20.48-.44-.43 23.1-19.62.87v67.12s-22.2 6.97-32.25 0z" class="cls-1"/></svg>