<svg xmlns="http://www.w3.org/2000/svg"><symbol id="twitter" viewBox="0 0 256 256"><path fill="#231f20" d="M125.84 209.66A83.64 83.64 0 1 1 209.48 126a83.73 83.73 0 0 1-83.64 83.66zm0-166.28A82.64 82.64 0 1 0 208.48 126a82.73 82.73 0 0 0-82.64-82.62z"/><path fill="#fff" d="M165.34 87.07c1.06.47 12.68-2.26 14.65-5.92S174.08 93 167 96.37c0 0 14.66-5.35 16.07-5.92s-11 11.56-12.41 12.41 2 94.43-97.53 54.68c-1.66-.66 25.37 3.39 35.23-8.74 0 0-14.09-.76-21.14-13.63l7.89-1.59s-14.65-5.35-15.5-20.29c0 0 8.46 2 10.71 2s-16.63-6.2-7.61-29c0 0 27.91 27.07 45 22.84.01-.07-3.25-40.13 37.63-22.06z"/><g fill="#231f20"><path d="M125.84 211.66A85.64 85.64 0 1 1 211.48 126a85.74 85.74 0 0 1-85.64 85.66zm0-166.28A80.64 80.64 0 1 0 206.48 126a80.73 80.73 0 0 0-80.64-80.62z"/><path d="M165.34 87.07c1.06.47 12.68-2.26 14.65-5.92S174.08 93 167 96.37c0 0 14.66-5.35 16.07-5.92s-11 11.56-12.41 12.41 2 94.43-97.53 54.68c-1.66-.66 25.37 3.39 35.23-8.74 0 0-14.09-.76-21.14-13.63l7.89-1.59s-14.65-5.35-15.5-20.29c0 0 8.46 2 10.71 2s-16.63-6.2-7.61-29c0 0 27.91 27.07 45 22.84.01-.07-3.25-40.13 37.63-22.06z"/></g></symbol><symbol id="facebook" viewBox="0 0 256 256"><g fill="#231f20"><path d="M122.53 211.66A85.64 85.64 0 1 1 208.17 126a85.74 85.74 0 0 1-85.64 85.66zm0-166.28A80.64 80.64 0 1 0 203.17 126a80.73 80.73 0 0 0-80.64-80.62z"/><path d="M122.53 212.66A86.64 86.64 0 1 1 209.17 126a86.74 86.74 0 0 1-86.64 86.66zm0-166.28A79.64 79.64 0 1 0 202.17 126a79.73 79.73 0 0 0-79.64-79.62z"/><path d="M107 208.89v-67.12H93.08v-24.4H107s-8.71-61.59 57.53-46.2l-.43 24.4s-20.16-5-23.35 4.2a18.25 18.25 0 0 0-1.38 5.08l-.55 13.39 20.48-.44-.43 23.1-19.62.87v67.12s-22.2 6.97-32.25 0z"/></g></symbol><symbol id="cart" viewBox="0 0 256 256"><g fill="#231f20"><path d="M111.85 211.64A85.64 85.64 0 1 1 197.49 126a85.74 85.74 0 0 1-85.64 85.64zm0-166.28A80.64 80.64 0 1 0 192.49 126a80.72 80.72 0 0 0-80.64-80.64z"/><path d="M111.85 212.14A86.14 86.14 0 1 1 198 126a86.23 86.23 0 0 1-86.15 86.14zm0-166.28A80.14 80.14 0 1 0 192 126a80.23 80.23 0 0 0-80.15-80.14z"/><path d="M88.74 182.08a12.43 12.43 0 1 1 12.43-12.42 12.43 12.43 0 0 1-12.43 12.42zm0-20.85a8.43 8.43 0 1 0 8.43 8.43 8.44 8.44 0 0 0-8.43-8.43z"/><path d="M88.74 183.08a13.43 13.43 0 1 1 13.43-13.42 13.43 13.43 0 0 1-13.43 13.42zm0-24.85a11.43 11.43 0 1 0 11.43 11.43 11.44 11.44 0 0 0-11.43-11.43zm0 20.85a9.43 9.43 0 1 1 9.43-9.42 9.44 9.44 0 0 1-9.43 9.42zm0-16.85a7.43 7.43 0 1 0 7.43 7.43 7.43 7.43 0 0 0-7.43-7.43zm64 19.85a12.43 12.43 0 1 1 12.43-12.42 12.43 12.43 0 0 1-12.43 12.42zm0-20.85a8.43 8.43 0 1 0 8.43 8.43 8.44 8.44 0 0 0-8.43-8.43z"/><path d="M152.74 183.08a13.43 13.43 0 1 1 13.43-13.42 13.43 13.43 0 0 1-13.43 13.42zm0-24.85a11.43 11.43 0 1 0 11.43 11.43 11.44 11.44 0 0 0-11.43-11.43zm0 20.85a9.43 9.43 0 1 1 9.43-9.42 9.44 9.44 0 0 1-9.43 9.42zm0-16.85a7.43 7.43 0 1 0 7.43 7.43 7.43 7.43 0 0 0-7.43-7.43z"/><path d="M150 161.23H87.32L61 85.17H48.07a2 2 0 0 1 0-4h15.75l26.35 76.06H150a2 2 0 0 1 0 4z"/><path d="M150 162.23H86.61L60.26 86.17H48.07a3 3 0 0 1 0-6h16.46l26.35 76.06H150a3 3 0 0 1 0 6zm-62-2h62a1 1 0 0 0 0-2H89.45L63.11 82.17h-15a1 1 0 0 0 0 2h13.57z"/><path d="M158.74 143.13H82.61l-14-41.6 105.93-1.41zm-73.25-4H156l12.84-34.94-94.63 1.26z"/><path d="M159.44 144.13H81.89l-14.66-43.59L176 99.1zm-76.11-2H158l15.07-41L70 102.51zm73.31-2H84.77l-12-35.66 97.45-1.3zm-70.43-2h69l12.1-32.92-91.8 1.22z"/><path d="M78.32 123.65a2 2 0 0 1 0-4l86.35-.45a2 2 0 0 1 0 4z"/><path d="M78.33 124.65a3 3 0 0 1-3-3 3 3 0 0 1 .87-2.13 3 3 0 0 1 2.11-.89l86.35-.45a3 3 0 0 1 2.15 5.11 3 3 0 0 1-2.12.89zm86.34-4.45l-86.36.45a1 1 0 0 0 0 2l86.34-.45a1 1 0 1 0 0-2z"/><path d="M133.36 143.13a1.67 1.67 0 0 1-.31 0 2 2 0 0 1-1.67-2.28l5.66-37a2 2 0 0 1 4 .61l-5.67 37a2 2 0 0 1-2.01 1.67z"/><path d="M133.36 144.13a3.55 3.55 0 0 1-.46 0 3 3 0 0 1-2.51-3.42l5.66-37a3 3 0 0 1 5.39-1.32 3 3 0 0 1 .54 2.23l-5.66 37a3 3 0 0 1-2.96 2.51zm5.66-41a1 1 0 0 0-1 .85l-5.66 37a1 1 0 1 0 2 .31l5.67-37a1 1 0 0 0-.19-.75 1 1 0 0 0-.65-.39zm-32.32 40a2 2 0 0 1-2-1.73l-5-37a2 2 0 0 1 4-.53l5 37a2 2 0 0 1-1.72 2.25z"/><path d="M106.7 144.13a3 3 0 0 1-3-2.59l-5-37a3 3 0 0 1 6-.81l5 37a3 3 0 0 1-2.57 3.38 3 3 0 0 1-.43.02zm-5-41h-.14a1 1 0 0 0-.84 1.13l5 37a1 1 0 0 0 1.13.85 1 1 0 0 0 .85-1.12l-5-37a1 1 0 0 0-1-.83z"/></g></symbol><symbol id="instagram" viewBox="0 0 256 256"><g fill="#231f20"><path d="M133.67 213.64A85.64 85.64 0 1 1 219.31 128a85.74 85.74 0 0 1-85.64 85.64zm0-166.28A80.64 80.64 0 1 0 214.31 128a80.73 80.73 0 0 0-80.64-80.64z"/><path d="M133.67 214.64A86.64 86.64 0 1 1 220.31 128a86.74 86.74 0 0 1-86.64 86.64zm0-166.28A79.64 79.64 0 1 0 213.31 128a79.73 79.73 0 0 0-79.64-79.64z"/><path d="M150.15 176.09h-33.06a27.07 27.07 0 0 1-27-27V116a27.08 27.08 0 0 1 27-27h33.06a27.09 27.09 0 0 1 27 27.05v33.06a27.08 27.08 0 0 1-27 26.98zm-33.06-81.15a21.07 21.07 0 0 0-21 21V149a21.07 21.07 0 0 0 21 21h33.06a21.07 21.07 0 0 0 21-21v-33a21.07 21.07 0 0 0-21-21z"/><path d="M150.15 176.59h-33.06a27.58 27.58 0 0 1-27.54-27.54V116a27.58 27.58 0 0 1 27.54-27.55h33.06A27.58 27.58 0 0 1 177.7 116v33.06a27.58 27.58 0 0 1-27.55 27.53zm-33.06-87.15A26.58 26.58 0 0 0 90.55 116v33.06a26.58 26.58 0 0 0 26.54 26.54h33.06a26.58 26.58 0 0 0 26.55-26.54V116a26.58 26.58 0 0 0-26.55-26.55zm33.06 81.15h-33.06a21.56 21.56 0 0 1-21.54-21.54V116a21.57 21.57 0 0 1 21.54-21.55h33.06A21.58 21.58 0 0 1 171.7 116v33.06a21.57 21.57 0 0 1-21.55 21.53zm-33.06-75.15A20.57 20.57 0 0 0 96.55 116v33.06a20.57 20.57 0 0 0 20.54 20.54h33.06a20.57 20.57 0 0 0 20.55-20.54V116a20.57 20.57 0 0 0-20.55-20.55z"/><path d="M134 153.87a21.35 21.35 0 1 1 21.35-21.35A21.38 21.38 0 0 1 134 153.87zm0-36.7a15.35 15.35 0 1 0 15.35 15.35A15.36 15.36 0 0 0 134 117.17z"/><path d="M134 154.37a21.85 21.85 0 1 1 21.85-21.85A21.87 21.87 0 0 1 134 154.37zm0-42.7a20.85 20.85 0 1 0 20.85 20.85A20.87 20.87 0 0 0 134 111.67zm0 36.7a15.85 15.85 0 1 1 15.85-15.85A15.87 15.87 0 0 1 134 148.37zm0-30.7a14.85 14.85 0 1 0 14.85 14.85A14.86 14.86 0 0 0 134 117.67zm22.92-2.5a5.54 5.54 0 1 1 5.54-5.54 5.55 5.55 0 0 1-5.54 5.54zm0-9.08a3.54 3.54 0 1 0 3.54 3.54 3.55 3.55 0 0 0-3.54-3.54z"/><path d="M156.92 115.67a6 6 0 1 1 6-6 6 6 0 0 1-6 6zm0-11.08a5 5 0 1 0 5 5 5 5 0 0 0-5-5zm0 9.08a4 4 0 1 1 4-4 4 4 0 0 1-4 4zm0-7.08a3 3 0 1 0 3 3 3 3 0 0 0-3-3z"/></g></symbol></svg>