<svg xmlns="http://www.w3.org/2000/svg"><symbol id="insence" viewBox="0 0 256 256"><defs><style>.cls-1,.cls-2{fill:none;stroke:#231f20;stroke-miterlimit:10}.cls-1{stroke-width:2px}.cls-2{stroke-width:.75px}</style></defs><rect width="35.41" height="12.71" x="111.68" y="83.71" class="cls-1" rx="6.35" ry="6.35"/><path d="M118 96.42s-.73 24-9.33 28.25-34.57 9.93-21.39 58.58l12.17 41.46s24.26 18.72 58 0c9.57-28.24 18-59.77 13.77-79.75a26.81 26.81 0 0 0-7.92-14.13l-.2-.18a24.9 24.9 0 0 0-10.89-5.65c-4.23-1.06-12.56-6-11.47-28.62m-26.8-69.37l28.98 192.95M121.28 26.64l14.76 193.68M133.6 27.74l-9.76 191.12m16.51-195.89l-23.48 197.72m28.62-192.58l-33.81 191.85" class="cls-1"/><path d="M89.22 171h79.42S159 215.24 155 220.61s-37.16 14.24-52.67 0c-.05 0-9.78-30.83-13.11-49.61z" class="cls-2"/></symbol><symbol id="crystal" viewBox="0 0 256 256"><defs><style>.cls-1{fill:none;stroke:#231f20;stroke-miterlimit:10;stroke-width:2px}</style></defs><path d="M133.32 35.6L74.99 77.48l-1.66 90.74 57.83 52.18 49.85-37.23 1.66-100.7-49.35-46.87z" class="cls-1"/><path d="M74.99 77.48l20.69 11.79h51.81l35.15-5" class="cls-1"/><path d="M133.32 35.6L95.68 89.27l-1.21 98.03h53.38l33.19-5.81" class="cls-1"/><path d="M135.68 37.85l11.81 51.42.36 98.03-16.69 33.1" class="cls-1"/></symbol><symbol id="book" viewBox="0 0 256 256"><defs><style>.cls-1,.cls-2{fill:none;stroke:#231f20;stroke-miterlimit:10;stroke-width:2px}.cls-2{fill:#231f20}</style></defs><path d="M218.49 127.32c3.15 1.93 7.15 8.18 7.15 8.18l-62.38 19.64c-9.08 18.73-32.5 9.09-32.5 9.09l-61.18 18s-41.24-61.87-39.15-61.12 6.44-6.61 6.44-6.61" class="cls-1"/><path d="M105.22 101.27s-5-10 11.62-12.41 32.75-12.15 33.54-15.06c0 0 22.71 25.62 51.49 23.77 0 0-.53 18-26.93 20.33s-33.54 19.54-28.79 30.9c0 0-7.65-19.54-67.6 6.34L43.17 97.31s14.52 5 41.19-2.65c16.11-2.9 20.86 6.61 20.86 6.61z" class="cls-1"/><path d="M46.12 102.13s-7.44 1.92-9.82 0 25.46 26.44 44.21 63.68c0 0 7.76-5.9 42-9.78" class="cls-1"/><path d="M94 155.14l32.78-6.27c5.58-1.07 12.3-.87 15.08 4.09.21.37.31.59.31.59" class="cls-1"/><path d="M135.33 159.36s10.56-15.51 23.5-8.81c1.85 2.21-10.56 11.72-23.5 8.81z" class="cls-2"/><path d="M105.22 101.27l40.93 47.53m-10.82 10.56s-41.78 6.37-58.6 14.51v-1.35S35.21 115 34.94 110.37c0 0 4.4.29 6.13-2m156.04-.02H214s-7.58 12.69-19.81 15-20.42-3.51-40.66 17.79" class="cls-1"/><path d="M208.78 114.82l12.79.43s-21.09 13.33-29.85 14.58c-14.2 2-19.5 6.89-25 11.28" class="cls-1"/><path d="M158.83 150.55l65.46-25.52-10.34-5.22" class="cls-1"/></symbol></svg>
