<svg xmlns="http://www.w3.org/2000/svg"><symbol id="book" viewBox="0 0 256 256"><defs><style>.cls-1{fill:#231f20}</style></defs><path d="M69.16 183.36l-.41-.61c-.1-.15-10.12-15.19-19.92-30.17-20.21-30.89-19.89-31.3-19.25-32.11l.45-.57.74.24c.76 0 3.3-2.89 5.24-6.18l1.72 1c-1.4 2.38-3.8 6-6 6.91C35 128 55.7 159.56 70 181l60.8-17.86.33.13a37.79 37.79 0 0 0 12.53 2.41c8.79.11 15.12-3.63 18.7-11l.18-.39L224.07 135c-1.27-1.83-3.95-5.46-6.1-6.78l1.05-1.71c3.3 2 7.3 8.24 7.47 8.5l.7 1.1L164 156c-8.9 17.61-30.3 10.42-33.26 9.32z" class="cls-1"/><path d="M78.15 156.4l-.45-.74-36.83-60.2 2.62.9c.14 0 14.6 4.81 40.6-2.66h.09c10.46-1.89 16.35 1.25 19.34 3.94a7.75 7.75 0 0 1 .88-3.35c1.75-3.33 5.89-5.49 12.3-6.4 16.87-2.41 32.16-12.3 32.71-14.33l.49-1.78 1.23 1.38c.22.25 22.73 25.24 50.68 23.43l1.09-.07v1.1a19.28 19.28 0 0 1-3.75 9.83C195.87 112 189 117.64 175 118.9c-12.58 1.13-22 5.89-26.52 13.39a18 18 0 0 0-1.44 16.11l-1.85.75c-.09-.18-1.32-2.76-5.82-4.58-8-3.23-24.92-3.86-60.45 11.48zM45.31 98.89l33.64 55c35.84-15.35 53.17-14.52 61.4-11.09a16.41 16.41 0 0 1 3.67 2.08 20.42 20.42 0 0 1 2.78-13.61c4.86-8.07 14.82-13.16 28-14.35 21.47-1.94 25.24-14.48 25.89-18.28-25.2 1-45.78-18.65-50.22-23.22-3.73 4.27-18.8 12.33-33.54 14.44-5.66.8-9.4 2.65-10.81 5.35a6.66 6.66 0 0 0 0 5.62l-1.79.9c-.18-.36-4.68-8.78-19.74-6.08-20.69 5.92-34.06 4.35-39.28 3.24z" class="cls-1"/><path d="M80.15 167.31l-.54-1.05c-10.11-20.08-24.42-40.8-42.54-61.58-2.13-2.44-2.3-2.64-1.63-3.33a1 1 0 0 1 1.49 0c1.37 1.11 6 .56 8.94-.19l.5 1.94a26.47 26.47 0 0 1-7.28.85c17.7 20.38 31.76 40.71 41.82 60.44 3-1.65 13.43-6.17 41.5-9.35l.22 2c-33.33 3.77-41.45 9.52-41.52 9.58z" class="cls-1"/><path d="M94.21 156.12l-.38-2s16.55-3.15 32.78-6.26c4.58-.88 12.77-1.45 16.14 4.58.24.42.35.67.35.67l-1.82.83s-.1-.21-.27-.52c-2.77-4.94-10-4.37-14-3.6z" class="cls-1"/><path d="M135.33 159.36s10.56-15.51 23.5-8.81c1.85 2.21-10.56 11.72-23.5 8.81z" class="cls-1"/><path d="M140.23 160.89a23.6 23.6 0 0 1-5.12-.55l-1.44-.32.83-1.22c.11-.16 11.22-16.17 24.79-9.14l.18.09.13.16c.34.41.78 1.31-.11 2.77-2.09 3.42-10.3 8.21-19.26 8.21zm-3.12-2.21a25.72 25.72 0 0 0 19-5.29 6 6 0 0 0 1.82-2.15c-9.67-4.68-18.06 4.06-20.82 7.44z" class="cls-1"/><path d="M124.69 93.67h2v62.73h-2z" class="cls-1" transform="rotate(-40.73 125.696 125.034)"/><path d="M75.73 175.47v-2.63c-7.38-10.23-41.52-57.78-41.79-62.41l-.06-1.12 1.12.07c1.07.06 4.12-.1 5.27-1.63l1.6 1.2c-1.36 1.82-3.95 2.29-5.57 2.4 3.18 6.9 26.35 40 41.24 60.58l.19.26v.12c17.52-7.79 55.78-13.68 57.45-13.94l.3 2c-.42.06-41.82 6.44-58.32 14.42zm78.47-33.67l-1.45-1.38c15.89-16.71 24.78-17 33.38-17.38a51.93 51.93 0 0 0 7.83-.7c9.17-1.71 15.71-9.63 18.11-13h-15v-2h18.6l-.9 1.51c-.32.53-7.95 13.11-20.49 15.45a55.21 55.21 0 0 1-8.11.73c-8.54.34-16.65.65-31.97 16.77z" class="cls-1"/><path d="M167.33 141.89l-1.24-1.56 1-.79c5.36-4.3 10.89-8.75 24.52-10.7 6.57-.94 20.62-9.07 26.63-12.7l-9.46-.32.07-2 16 .54-2.75 1.73c-.86.55-21.37 13.46-30.24 14.73-13.09 1.88-18.4 6.15-23.54 10.28z" class="cls-1"/><path d="M159.19 151.48l-.72-1.86 63.37-24.7-8.34-4.22.9-1.78 12.34 6.23-67.55 26.33z" class="cls-1"/></symbol><symbol id="insence" viewBox="0 0 256 256"><defs><style>.cls-1{fill:#231f20}</style></defs><path d="M140.74 97.42H118a7.36 7.36 0 0 1 0-14.71h22.71a7.36 7.36 0 0 1 0 14.71zM118 84.71a5.36 5.36 0 0 0 0 10.71h22.71a5.36 5.36 0 0 0 0-10.71z" class="cls-1"/><path d="M127.56 234c-17.42 0-28.53-8.34-28.69-8.47l-.26-.2-12.26-41.8c-12.18-44.95 9-54.1 19.13-58.5 1.07-.46 2-.86 2.77-1.25 8-4 8.77-27.16 8.78-27.39l2 .06c0 1-.85 24.6-9.88 29.12-.83.41-1.82.84-2.87 1.3-10.39 4.49-29.72 12.86-18 56.12l12.07 41.11c2.65 1.9 25.55 16.78 56.31-.1 12.51-37 17-62.82 13.61-78.86a25.66 25.66 0 0 0-7.63-13.6l-.19-.17A23.65 23.65 0 0 0 152 126c-5-1.26-13.33-6.78-12.23-29.64l2 .1c-.36 7.4 0 24.92 10.72 27.6a25.75 25.75 0 0 1 11.35 5.85l.19.18a27.6 27.6 0 0 1 8.23 14.66c3.44 16.44-1.08 42.7-13.8 80.27l-.12.37-.34.18c-11.37 6.3-21.7 8.43-30.44 8.43z" class="cls-1"/><path d="M127.43 25.92h2v195.11h-2z" class="cls-1" transform="rotate(-8.54 128.42 123.528)"/><path d="M127.66 26.36h2v194.25h-2z" class="cls-1" transform="rotate(-4.36 128.678 123.547)"/><path d="M33.04 122.3H224.4v2H33.04z" class="cls-1" transform="rotate(-87.09 128.72 123.295)"/><path d="M29.06 120.83h199.11v2H29.06z" class="cls-1" transform="rotate(-83.21 128.625 121.832)"/><path d="M31.18 123.03h194.81v2H31.18z" class="cls-1" transform="rotate(-79.99 128.568 124.028)"/><path d="M126.46 228.67c-7.59 0-17.52-1.44-24.44-7.78l-.07-.07v-.1c-.1-.31-9.77-31.06-13.07-49.68l-.08-.44h80.3l-.1.45c-.39 1.81-9.72 44.41-13.75 49.78-2.12 2.83-11.87 6.54-23 7.58-1.67.15-3.63.26-5.79.26zm-23.86-8.27c8.67 7.89 22.24 7.94 29.57 7.26 10.78-1 20.5-4.64 22.48-7.28 3.72-4.95 12.48-44.33 13.52-49h-78.5c3.27 18.06 12.33 47.12 12.93 49.02z" class="cls-1"/></symbol><symbol id="crystal" viewBox="0 0 256 256"><defs><style>.cls-1{fill:#231f20}</style></defs><path d="M131.1 221.69l-58.78-53L74 77l59.41-42.65L183.68 82v.44L182 183.68zm-56.77-53.91l56.89 51.32L180 182.66l1.65-99.77-48.44-46L76 78z" class="cls-1"/><path d="M147.56 90.27H95.41L74.49 78.35l.99-1.74 20.46 11.66h51.48l35.08-4.99.28 1.98-35.22 5.01z" class="cls-1"/><path d="M147.94 188.3H93.46l1.22-99.35 37.82-53.92 1.64 1.15-37.47 53.41-1.19 96.71h52.28l33.11-5.8.34 1.97-33.27 5.83z" class="cls-1"/><path d="M132.05 220.85l-1.79-.9 16.59-32.89-.36-97.67-11.78-51.32 1.95-.44 11.83 51.53v.11l.36 98.26-.11.22-16.69 33.1z" class="cls-1"/></symbol></svg>