<svg xmlns="http://www.w3.org/2000/svg" width="256" height="256" viewBox="0 0 256 256"><g fill="#231f20"><path d="M140.74 97.42H118a7.36 7.36 0 0 1 0-14.71h22.71a7.36 7.36 0 0 1 0 14.71zM118 84.71a5.36 5.36 0 0 0 0 10.71h22.71a5.36 5.36 0 0 0 0-10.71z"/><path d="M140.74 98.42H118a8.36 8.36 0 0 1 0-16.71h22.71a8.36 8.36 0 0 1 0 16.71zm-29.06-8.35a6.36 6.36 0 0 0 6.32 6.35h22.71a6.36 6.36 0 0 0 6.35-6.35 6.36 6.36 0 0 1-6.35 6.35H118a6.36 6.36 0 0 1-6.32-6.35zm6.32-4.36a4.36 4.36 0 0 0 0 8.71h22.71a4.36 4.36 0 0 0 0-8.71z"/><path d="M127.56 234c-17.42 0-28.53-8.34-28.69-8.47l-.26-.2-12.26-41.8c-12.18-44.95 9-54.1 19.13-58.5 1.07-.46 2-.86 2.77-1.25 8-4 8.77-27.16 8.78-27.39l2 .06c0 1-.85 24.6-9.88 29.12-.83.41-1.82.84-2.87 1.3-10.39 4.49-29.72 12.86-18 56.12l12.07 41.11c2.65 1.9 25.55 16.78 56.31-.1 12.51-37 17-62.82 13.61-78.86a25.66 25.66 0 0 0-7.63-13.6l-.19-.17A23.65 23.65 0 0 0 152 126c-5-1.26-13.33-6.78-12.23-29.64l2 .1c-.36 7.4 0 24.92 10.72 27.6a25.75 25.75 0 0 1 11.35 5.85l.19.18a27.6 27.6 0 0 1 8.23 14.66c3.44 16.44-1.08 42.7-13.8 80.27l-.12.37-.34.18c-11.37 6.3-21.7 8.43-30.44 8.43z"/><path d="M127.56 235c-17.82 0-29.19-8.59-29.3-8.68l-.52-.39-12.35-42.12c-12.41-45.8 9.28-55.19 19.7-59.7 1-.43 2-.84 2.72-1.23 6.18-3.09 8-20.19 8.22-26.52v-1l4 .12v1c-.08 2.58-1.06 25.29-10.43 30-.86.43-1.87.87-2.93 1.32-10.11 4.38-28.92 12.52-17.43 54.95l12 40.75c3.56 2.4 25.46 15.65 54.64-.15 12.36-36.66 16.76-62.16 13.46-78a24.69 24.69 0 0 0-7.34-13.06l-.18-.17a22.8 22.8 0 0 0-10.09-5.12c-5.34-1.33-14.13-7.09-13-30.66v-1l4 .2v1c-.35 7.15-.07 24.07 10 26.58a26.69 26.69 0 0 1 11.78 6.08l.2.18a28.69 28.69 0 0 1 8.53 15.19c3.48 16.63-1.05 43.06-13.83 80.8l-.25.73-.68.38c-10.21 5.63-20.6 8.52-30.92 8.52zm-16.91-4.78a52.72 52.72 0 0 0 16.91 2.78c9.91 0 19.9-2.74 29.72-8.15l-.14.08c-19.67 10.75-36.24 8.72-46.49 5.26zm-11.17-5.48l-12.17-41.47c0-.2-.1-.39-.16-.59.06.2.11.39.16.59zm71.93-54.52c-1.85 14.39-6.43 32.34-13.8 54.15l-.13.37c7.45-22.01 12.07-40.08 13.93-54.55zm-7.22-38.45a26.14 26.14 0 0 1 4.5 6.16 26.14 26.14 0 0 0-4.49-6.24zm-55.31-7.11l-.19.09-.41.21.41-.21zm31.8-27.16c-.5 13.71 2.48 20.73 5.91 24.3-5.67-6-6.12-17.87-5.9-24.3zm-22.7 0c-.07 1.26-.22 3.58-.56 6.36.29-2.31.47-4.5.56-6.36z"/><path d="M112.946 27.15l1.978-.298L143.898 219.8l-1.978.297z"/><path d="M141.09 221.24L111.81 26.31l4-.59L145 220.65zM114.09 28l28.68 191z"/><path d="M120.275 26.719l1.994-.152 14.767 193.687-1.994.152z"/><path d="M119.201 25.798l3.989-.305 14.92 195.683-3.99.304z"/><path d="M122.869 218.801l9.715-191.113 1.997.101-9.715 191.114z"/><path d="M125.79 220l-4-.21 9.86-193.11 4 .2zm-1.9-2.1l9.66-189.12z"/><path d="M115.858 220.58L139.4 22.867l1.986.236-23.54 197.714z"/><path d="M118.74 221.92l-4-.47 23.74-199.71 4 .47zM117 219.7L140.23 24z"/><path d="M110.657 219.76L144.52 27.916l1.97.347-33.862 191.845z"/><path d="M113.47 221.29l-3.94-.7.18-.98 33.98-192.83 3.94.69-.18.98z"/><path d="M126.46 228.67c-7.59 0-17.52-1.44-24.44-7.78l-.07-.07v-.1c-.1-.31-9.77-31.06-13.07-49.68l-.08-.44h80.3l-.1.45c-.39 1.81-9.72 44.41-13.75 49.78-2.12 2.83-11.87 6.54-23 7.58-1.67.15-3.63.26-5.79.26zm-23.86-8.27c8.67 7.89 22.24 7.94 29.57 7.26 10.78-1 20.5-4.64 22.48-7.28 3.72-4.95 12.48-44.33 13.52-49h-78.5c3.27 18.06 12.33 47.12 12.93 49.02z"/><path d="M126.46 229.67c-7.45 0-17.86-1.39-25.11-8l-.27-.25-.08-.42c-.1-.3-9.81-31.2-13.11-49.81l-.28-1.61h82.76l-.36 1.67c-1 4.55-9.82 44.69-13.93 50.16-2.56 3.42-13.2 7-23.72 8-2 .17-3.97.26-5.9.26zm-23-9.83c8.39 7.46 21.49 7.48 28.6 6.82 11.06-1 20.14-4.69 21.77-6.88 2.85-3.8 9.43-31 13.07-47.43h-76c3.28 17.48 11.6 44.35 12.58 47.49z"/></g></svg>