<svg xmlns="http://www.w3.org/2000/svg" width="256" height="256" viewBox="0 0 256 256"><g fill="#231f20"><path d="M133.67 213.64A85.64 85.64 0 1 1 219.31 128a85.74 85.74 0 0 1-85.64 85.64zm0-166.28A80.64 80.64 0 1 0 214.31 128a80.73 80.73 0 0 0-80.64-80.64z"/><path d="M133.67 214.64A86.64 86.64 0 1 1 220.31 128a86.74 86.74 0 0 1-86.64 86.64zm0-166.28A79.64 79.64 0 1 0 213.31 128a79.73 79.73 0 0 0-79.64-79.64z"/><path d="M150.15 176.09h-33.06a27.07 27.07 0 0 1-27-27V116a27.08 27.08 0 0 1 27-27h33.06a27.09 27.09 0 0 1 27 27.05v33.06a27.08 27.08 0 0 1-27 26.98zm-33.06-81.15a21.07 21.07 0 0 0-21 21V149a21.07 21.07 0 0 0 21 21h33.06a21.07 21.07 0 0 0 21-21v-33a21.07 21.07 0 0 0-21-21z"/><path d="M150.15 176.59h-33.06a27.58 27.58 0 0 1-27.54-27.54V116a27.58 27.58 0 0 1 27.54-27.55h33.06A27.58 27.58 0 0 1 177.7 116v33.06a27.58 27.58 0 0 1-27.55 27.53zm-33.06-87.15A26.58 26.58 0 0 0 90.55 116v33.06a26.58 26.58 0 0 0 26.54 26.54h33.06a26.58 26.58 0 0 0 26.55-26.54V116a26.58 26.58 0 0 0-26.55-26.55zm33.06 81.15h-33.06a21.56 21.56 0 0 1-21.54-21.54V116a21.57 21.57 0 0 1 21.54-21.55h33.06A21.58 21.58 0 0 1 171.7 116v33.06a21.57 21.57 0 0 1-21.55 21.53zm-33.06-75.15A20.57 20.57 0 0 0 96.55 116v33.06a20.57 20.57 0 0 0 20.54 20.54h33.06a20.57 20.57 0 0 0 20.55-20.54V116a20.57 20.57 0 0 0-20.55-20.55z"/><path d="M134 153.87a21.35 21.35 0 1 1 21.35-21.35A21.38 21.38 0 0 1 134 153.87zm0-36.7a15.35 15.35 0 1 0 15.35 15.35A15.36 15.36 0 0 0 134 117.17z"/><path d="M134 154.37a21.85 21.85 0 1 1 21.85-21.85A21.87 21.87 0 0 1 134 154.37zm0-42.7a20.85 20.85 0 1 0 20.85 20.85A20.87 20.87 0 0 0 134 111.67zm0 36.7a15.85 15.85 0 1 1 15.85-15.85A15.87 15.87 0 0 1 134 148.37zm0-30.7a14.85 14.85 0 1 0 14.85 14.85A14.86 14.86 0 0 0 134 117.67zm22.92-2.5a5.54 5.54 0 1 1 5.54-5.54 5.55 5.55 0 0 1-5.54 5.54zm0-9.08a3.54 3.54 0 1 0 3.54 3.54 3.55 3.55 0 0 0-3.54-3.54z"/><path d="M156.92 115.67a6 6 0 1 1 6-6 6 6 0 0 1-6 6zm0-11.08a5 5 0 1 0 5 5 5 5 0 0 0-5-5zm0 9.08a4 4 0 1 1 4-4 4 4 0 0 1-4 4zm0-7.08a3 3 0 1 0 3 3 3 3 0 0 0-3-3z"/></g></svg>