<svg height="64" viewBox="0 0 64 64" width="64" xmlns="http://www.w3.org/2000/svg"><g fill="#459baa"><path d="m36.8 26.91.08-.18a2.81 2.81 0 0 0 .23-1 10.59 10.59 0 0 0 -.11-2.82c-.79-3-3-3.8-5.9-2.94-2.62.75-4.1 8.03 1.18 12.21 5 4 3.3 16.24-1.55 18.43 0 0 8.21-4.57 7.72-11.63-.4-5.55-2.23-6.62-5.59-8.93-1.37-.94-.82-.44.22.12a1.94 1.94 0 0 0 2.8-1.17 12.9 12.9 0 0 1 .92-2.09z"/><path d="m35.48 30.79s1.12-2.87 8.24-3.15 10.16-9.64 10.16-9.64c0-.62-.86 13.22-8.61 13-1.73.14-6.57-2.32-9.79-.21zm-4.27 1.73s-1.67-4.14-8.79-4.42-10.16-9.64-10.16-9.64.81 13.22 8.61 13c1.73.14 7.13-1.05 10.34 1.06zm12.19 18.07c5.21-1.63 7 0 7.63 2.15.8 2.48-2.5 8.71-10.06 4.73-5.51-3.88-10.06-4.73-12.19-4.47 0 0 10.3-3 11.12-11.42a53.28 53.28 0 0 1 -.76 7 6.29 6.29 0 0 0 3.74 7.1c1.65.66 4.47 1.13 4.85-1.11.7-3.98-4.33-3.98-4.33-3.98z"/><path d="m38.47 58.76a26.13 26.13 0 0 0 -12.57-.89c-6.66 1.27-13.14-2.61-10.9-6.68 1.93-2.61 7.26-1.65 7.26-1.65s9 1.65 7.36-8.89a9.92 9.92 0 0 0 -8.71-7.54s4.49-1.45 7.44-.77c3.38.77 5.7 3.77 5.72 7.73a13.1 13.1 0 0 1 -6.9 11.69c-5.63 3.01 11.3 7 11.3 7zm-19.47-45.76a.15.15 0 0 1 .1 0h.1c.04 0 .24.26.32.36s.2.24.31.37l.38.44a10.63 10.63 0 0 1 .68.9c0 .06.06.12.1.18a.85.85 0 0 1 .08.17.58.58 0 0 1 0 .18.22.22 0 0 1 0 .16c-.08.12-.26.18-.54.16a7 7 0 0 1 -1.23-.24l-.76-.22c-.26-.07-.53-.17-.81-.27s-.26-.1-.38-.14l-.35-.17a3.85 3.85 0 0 1 0 .48v.97c.74.16 1.33.3 1.75.44a2.62 2.62 0 0 1 .84.37.19.19 0 0 1 .08.18.4.4 0 0 1 -.06.22.44.44 0 0 1 -.14.18.17.17 0 0 1 -.16 0h-.06v-.12a.28.28 0 0 0 -.08-.06 1.67 1.67 0 0 0 -.24-.08c-.1 0-.2-.06-.34-.1a5.27 5.27 0 0 0 -.65-.14c-.24 0-.5-.1-.78-.14a1.07 1.07 0 0 0 .22.48.69.69 0 0 0 .38.24s.06 0 .08.06a.12.12 0 0 1 0 .08l-.06.06a.22.22 0 0 1 -.1 0 1 1 0 0 1 -.52-.28 2.09 2.09 0 0 1 -.16-.22c0-.08-.08-.18-.12-.28a.59.59 0 0 1 0-.17 5.27 5.27 0 0 0 -.81-.14c-.28 0-.56-.06-.86-.12a1.27 1.27 0 0 1 0 .27 1.32 1.32 0 0 1 0 .28 5.07 5.07 0 0 0 .08.58 1.69 1.69 0 0 0 .16.48.78.78 0 0 0 .28.34 1.19 1.19 0 0 0 .46.15h.1c.04 0 0 .06 0 .08a.11.11 0 0 1 -.06.08.22.22 0 0 1 -.1 0 1.16 1.16 0 0 1 -1-.59 2.28 2.28 0 0 1 -.23-.46 5.82 5.82 0 0 1 -.08-.62v-.63a7 7 0 0 1 -.83-.18 2.24 2.24 0 0 1 -.6-.22 1 1 0 0 1 -.4-.4.88.88 0 0 1 -.05-.48.8.8 0 0 1 .19-.35.82.82 0 0 1 .8-.24 1.13 1.13 0 0 1 .46.24 1.79 1.79 0 0 1 .51.75l.88.18.91.18v-.46a4.61 4.61 0 0 1 0-.53v-.54a4.06 4.06 0 0 1 -.51-.26c-.24-.12-.46-.26-.66-.38a2.51 2.51 0 0 1 -.48-.38 1.79 1.79 0 0 1 -.51-.79.91.91 0 0 1 .06-.66.61.61 0 0 1 .27-.28 1.06 1.06 0 0 1 .4-.09 1 1 0 0 1 .7.21 2.73 2.73 0 0 1 .65.7 2.49 2.49 0 0 1 .3 1.23c.42.22.88.44 1.37.64l.84.32a6.87 6.87 0 0 0 .73.24 5.49 5.49 0 0 0 .54.14.54.54 0 0 0 .26 0s.06-.06 0-.14a1.31 1.31 0 0 0 -.12-.24 3.06 3.06 0 0 0 -.26-.32l-.34-.4c-.12-.14-.23-.3-.35-.42l-.32-.35-.26-.36a.15.15 0 0 1 0-.08zm-4.85 2.39a.69.69 0 0 0 -.32-.16.63.63 0 0 0 -.26 0 .11.11 0 0 0 -.08.12c0 .06.1.15.28.25a1 1 0 0 0 .32.14c.12 0 .28.1.44.14a1.83 1.83 0 0 0 -.16-.26zm1.67-3a.81.81 0 0 0 -.54-.16.09.09 0 0 0 -.1.1.52.52 0 0 0 .06.22 2 2 0 0 0 .16.28 1.51 1.51 0 0 0 .22.28 2.87 2.87 0 0 0 .44.38c.18.14.39.25.61.39a3 3 0 0 0 -.1-.47 1.16 1.16 0 0 0 -.2-.42 3.27 3.27 0 0 0 -.25-.36 3.15 3.15 0 0 0 -.28-.3z"/><path d="m20.25 11.54h.1a.16.16 0 0 1 .08.08c.12.24.26.45.38.69s.22.44.32.62.06.16.1.24a.53.53 0 0 1 .06.24.41.41 0 0 1 0 .22.36.36 0 0 1 -.08.19.41.41 0 0 1 -.34.12 2 2 0 0 1 -.6-.12 5.74 5.74 0 0 1 -.89-.39 3 3 0 0 1 -.78-.62 1.67 1.67 0 0 1 -.16-.24 1.52 1.52 0 0 1 -.08-.22.68.68 0 0 1 .06-.4.49.49 0 0 1 .28-.23.53.53 0 0 1 .52.06c.22.14.28.43.22.85l.33.2a2.56 2.56 0 0 0 .4.22 2.13 2.13 0 0 0 .38.18.67.67 0 0 0 .28.08c.08 0 .12 0 .14-.08a.48.48 0 0 0 -.06-.3c-.08-.18-.2-.4-.32-.62l-.36-.65a.15.15 0 0 1 0-.08zm-1.05.89v-.2a.29.29 0 0 0 0-.14v-.08c0-.02 0 0 0 0a.15.15 0 0 0 -.08 0 .57.57 0 0 0 .08.42z"/><path d="m22.2 9.75h.1a.28.28 0 0 1 .08.06l.06.12a2.29 2.29 0 0 0 .16.28 2.79 2.79 0 0 1 .2.39 3.25 3.25 0 0 1 .22.46c0 .1.1.22.16.36s.11.3.17.44a3.48 3.48 0 0 1 .1.41.32.32 0 0 1 -.08.28c-.08.08-.19.08-.35 0a2.08 2.08 0 0 1 -.66-.46 7.12 7.12 0 0 1 -.56-.55l.12.3a1.8 1.8 0 0 1 .1.33 1.72 1.72 0 0 1 0 .32.45.45 0 0 1 -.12.26l-.12.06a.45.45 0 0 1 -.22 0 2.44 2.44 0 0 1 -.33-.14 2.48 2.48 0 0 1 -.48-.32 2.07 2.07 0 0 1 -.62-.65.63.63 0 0 1 0-.56.68.68 0 0 1 .38-.32 1.36 1.36 0 0 1 .64 0l-.28-.4a.12.12 0 0 1 0-.17.44.44 0 0 1 .2-.18.64.64 0 0 1 .28-.06c.1 0 .17.06.25.18l.16.21.2.26.26.34.52.6a1.76 1.76 0 0 0 .34.3q.09.06.06-.12a5 5 0 0 0 -.28-.66c-.08-.16-.16-.3-.22-.44s-.14-.28-.2-.38l-.22-.37a.15.15 0 0 1 0-.08s-.04-.08-.02-.1zm-.52 2.15a2.27 2.27 0 0 0 -.18-.4 1.75 1.75 0 0 0 -.23-.42 1 1 0 0 0 -.44-.06.12.12 0 0 0 -.1.16.74.74 0 0 0 .16.3c.1.12.22.24.36.38l.26.21a.59.59 0 0 0 .19.12h.08a.61.61 0 0 0 -.1-.29z"/><path d="m24.47 8.28a.18.18 0 0 1 .1 0s.06 0 .06.08l.06.17a4.23 4.23 0 0 0 .16.44c.06.18.13.4.19.62s.16.48.22.71a10.69 10.69 0 0 1 .36 1.44v.25a1.14 1.14 0 0 1 0 .26.72.72 0 0 1 0 .22.44.44 0 0 1 -.1.16q-.18.12-.54-.06a5.21 5.21 0 0 1 -.75-.52 11.19 11.19 0 0 1 -.86-.79c-.31-.32-.65-.66-1-1s-.68-.79-1-1.19a10.18 10.18 0 0 1 -.76-1.13 2.86 2.86 0 0 1 -.38-1 .59.59 0 0 1 .52-.79.86.86 0 0 1 .32 0 .94.94 0 0 1 .3.12 1.71 1.71 0 0 1 .27.2 2.32 2.32 0 0 1 .52.69 4.63 4.63 0 0 1 .32.88c0 .18.06.34.08.49a3.84 3.84 0 0 1 0 .48.39.39 0 0 1 0 .14v.14c.34.46.69.88 1.05 1.29l.44.48c.16.16.3.32.46.46s.28.26.41.38a2.43 2.43 0 0 0 .32.21.13.13 0 0 0 .18 0v-.35a12.9 12.9 0 0 0 -.42-1.4c-.08-.23-.15-.47-.23-.69s-.14-.44-.22-.62-.14-.38-.22-.59a.09.09 0 0 1 0-.1c.1-.06.12-.08.14-.08zm-2.93-1.63c-.13-.12-.23-.2-.29-.2a.09.09 0 0 0 -.1.1 1.1 1.1 0 0 0 .06.31c0 .14.1.28.16.44a4.69 4.69 0 0 0 .21.46c.08.16.16.28.22.4a3.71 3.71 0 0 0 .28.41l.3.42a3.6 3.6 0 0 0 -.06-.91 3 3 0 0 0 -.3-.8 2.13 2.13 0 0 0 -.48-.63z"/><path d="m25.9 7.68a.28.28 0 0 1 .06.08c.06.16.1.32.14.44s.08.28.12.45l.12.52c0 .22.08.42.12.58s0 .32.06.44a.8.8 0 0 1 0 .39.33.33 0 0 1 -.16.2.32.32 0 0 1 -.26 0 1 1 0 0 1 -.34-.28 4.46 4.46 0 0 1 -.6-.81 3.28 3.28 0 0 1 -.25-.44c-.08-.14-.16-.28-.24-.4s-.12-.22-.16-.29l-.06-.12c0-.06 0-.1.06-.16a.83.83 0 0 1 .22-.14.63.63 0 0 1 .27 0 .29.29 0 0 1 .22.18s0 .08.1.24.18.35.3.59c.36.64.56 1 .66 1s0-.3-.1-.9a3.65 3.65 0 0 0 -.14-.5c0-.15-.08-.31-.12-.43s-.08-.28-.14-.44v-.1l.06-.06c.06-.06.04-.06.06-.04zm-1.65-.68a.33.33 0 0 0 -.25 0 .25.25 0 0 0 -.14.18.34.34 0 0 0 0 .24.25.25 0 0 0 .18.14.28.28 0 0 0 .22 0 .25.25 0 0 0 .14-.18.28.28 0 0 0 0-.22.22.22 0 0 0 -.15-.16z"/><path d="m29 6.57a.1.1 0 0 1 .08 0v.21a1.73 1.73 0 0 1 0 .3 3.66 3.66 0 0 1 0 .42v.48a6.22 6.22 0 0 1 -.18 1c-.1.32-.22.52-.4.58a.25.25 0 0 1 -.29-.08 1 1 0 0 1 -.21-.27 2.13 2.13 0 0 1 -.14-.38c0-.14-.08-.3-.12-.47s-.06-.34-.1-.52-.06-.3-.08-.44-.06-.28-.08-.4-.08-.23-.1-.29l-.08-.12h-.06c-.06 0-.1.08-.16.16a1.27 1.27 0 0 0 -.1.41 3.34 3.34 0 0 0 0 .76c0 .32.08.69.16 1.17a.3.3 0 0 1 0 .26.52.52 0 0 1 -.18.18.46.46 0 0 1 -.22.06.13.13 0 0 1 -.15-.1c-.12-.22-.22-.44-.32-.64l-.26-.53c-.08-.16-.14-.34-.22-.52a.21.21 0 0 1 0-.22.52.52 0 0 1 .21-.16.76.76 0 0 1 .3 0 .29.29 0 0 1 .2.2 1.4 1.4 0 0 1 .08.22c.06.14.13.34.23.62l-.1-.46a3.7 3.7 0 0 1 0-.46 2.68 2.68 0 0 1 0-.42.68.68 0 0 1 .06-.31.48.48 0 0 1 .14-.26 1.15 1.15 0 0 1 .22-.22.7.7 0 0 1 .28-.12.87.87 0 0 1 .32 0 .78.78 0 0 1 .3.22 1 1 0 0 1 .18.37 2.75 2.75 0 0 1 .1.5c0 .18 0 .36.05.56s.08.54.12.71.08.28.12.3.08 0 .1-.18a5.89 5.89 0 0 0 .1-.69 3.88 3.88 0 0 0 0-.48 3 3 0 0 0 0-.4v-.39a.1.1 0 0 1 0-.08c.2-.08.2-.1.2-.08z"/><path d="m32 6.13.06.06v.1a3.78 3.78 0 0 1 -.33.57c-.14.2-.3.42-.48.64q0 .18.06.42v1.07a5.06 5.06 0 0 1 0 .56 4.12 4.12 0 0 1 -.06.52 2.05 2.05 0 0 1 -.1.41 3.37 3.37 0 0 1 -.15.52 1 1 0 0 1 -.26.34.5.5 0 0 1 -.24.14.38.38 0 0 1 -.26 0 .47.47 0 0 1 -.19-.18.94.94 0 0 1 -.16-.28 2 2 0 0 1 -.1-.79c0-.2.06-.4.1-.6a2.62 2.62 0 0 1 .11-.58l.23-.53c.1-.18.2-.34.3-.5s-.06-.42-.1-.64-.08-.42-.14-.63a3.78 3.78 0 0 1 -.12.57c0 .18-.1.32-.14.46a1.34 1.34 0 0 1 -.03.22l-.12.18a.47.47 0 0 1 -.14.14.19.19 0 0 1 -.18 0 .51.51 0 0 1 -.4-.24 1.53 1.53 0 0 1 -.3-.68 1.46 1.46 0 0 1 0-.83 1.59 1.59 0 0 1 .14-.32 1.06 1.06 0 0 1 .24-.2.53.53 0 0 1 .54.06 1 1 0 0 1 .33.34v-.18a.55.55 0 0 1 0-.18.13.13 0 0 1 0-.1l.12-.12.16-.12a.32.32 0 0 1 .18-.06.23.23 0 0 1 .16 0 .2.2 0 0 1 .1.12 3.53 3.53 0 0 1 .08.4 3.53 3.53 0 0 0 .08.4c0 .16.06.31.08.47l.38-.51a1.58 1.58 0 0 0 .25-.48s0-.06.06-.06.24.1.24.1zm-2.06 4.17a1.68 1.68 0 0 0 0 .58.39.39 0 0 0 .17.26q.12 0 .24-.12a1.41 1.41 0 0 0 .22-.54 3 3 0 0 0 .08-.83 10.38 10.38 0 0 0 -.08-1.27 5.18 5.18 0 0 0 -.46.91 7.57 7.57 0 0 0 -.17 1.01zm0-2.58a3.75 3.75 0 0 0 .19-.84.63.63 0 0 0 -.23-.37.16.16 0 0 0 -.2 0 .6.6 0 0 0 -.1.31 1.63 1.63 0 0 0 0 .44 2.08 2.08 0 0 1 .06.24c0 .1.06.16.08.24s.06.1.1.1.06-.02.1-.12zm7.73-1.21a.15.15 0 0 1 0 .08v.1a2 2 0 0 1 -.32.25 1.12 1.12 0 0 1 -.32.14 1.77 1.77 0 0 1 -.33.08 2.2 2.2 0 0 1 -.36 0 13 13 0 0 1 -.56 1.84 11.75 11.75 0 0 1 -.52 1.1 2.56 2.56 0 0 1 -.59.73 1.3 1.3 0 0 1 -.76.36.48.48 0 0 1 -.45-.36 1.79 1.79 0 0 1 -.14-.52 3.39 3.39 0 0 1 0-.65 2.36 2.36 0 0 1 .16-.66 2.27 2.27 0 0 1 .35-.65 3.56 3.56 0 0 1 1.34-1.08 2 2 0 0 1 .43-.14c.08-.45.14-.91.18-1.35s.06-.85.06-1.23a6.09 6.09 0 0 1 -1 1.23 2.31 2.31 0 0 1 -1.41.58.1.1 0 0 1 -.08 0 .15.15 0 0 1 0-.08.1.1 0 0 1 0-.08.15.15 0 0 1 .08 0c.79 0 1.49-.56 2.22-1.67l.35-.71c.1-.2.2-.38.28-.55s.16-.34.24-.54a.13.13 0 0 1 .16-.08.14.14 0 0 1 .12.12v1.13c0 .34 0 .72-.06 1.16s-.1.87-.18 1.33l-.06.32c0 .09 0 .19-.06.31h.32l.24-.1a.62.62 0 0 0 .26-.12l.26-.19a.15.15 0 0 1 .08 0c.03-.14.05-.14.07-.1zm-4.23 3.16a2.7 2.7 0 0 0 0 .57 1.27 1.27 0 0 0 .11.42.28.28 0 0 0 .24.16.63.63 0 0 0 .38-.2 2.81 2.81 0 0 0 .68-1.07 11.89 11.89 0 0 0 .55-1.73l.06-.24a1 1 0 0 0 0-.24 3.44 3.44 0 0 0 -.37.14l-.4.22a2.8 2.8 0 0 0 -.4.32 4.47 4.47 0 0 0 -.42.44 2.46 2.46 0 0 0 -.34.57c0 .2-.05.42-.09.64z"/><path d="m39.7 7.18v.1c0 .04 0 .06-.08.06a.58.58 0 0 1 -.4 0h-.1l-.12-.06-.08-.08a.44.44 0 0 1 -.08-.1 1.16 1.16 0 0 1 -.1.32 1.32 1.32 0 0 1 -.45.62 1.51 1.51 0 0 1 -.36.18.67.67 0 0 1 -.34 0 .89.89 0 0 1 -.34-.16 1.51 1.51 0 0 1 -.22-.28 1.69 1.69 0 0 1 -.03-.32 1.36 1.36 0 0 1 0-.38.89.89 0 0 1 .18-.35 1.35 1.35 0 0 1 .28-.3 1 1 0 0 1 .86-.16.61.61 0 0 1 .31.16 3.48 3.48 0 0 1 .24.28c.06.08.1.15.14.21a1.14 1.14 0 0 0 .14.16.23.23 0 0 0 .16.06.3.3 0 0 0 .18 0 .09.09 0 0 1 .1 0 .16.16 0 0 1 .11.04zm-1.87.14a.66.66 0 0 0 0 .4.22.22 0 0 0 .2.14.48.48 0 0 0 .28-.12 1.15 1.15 0 0 0 .26-.38 1.47 1.47 0 0 0 .08-.28.72.72 0 0 0 0-.26.4.4 0 0 0 -.1-.17.59.59 0 0 0 -.26.1.75.75 0 0 0 -.2.15.72.72 0 0 0 -.14.2.69.69 0 0 0 -.12.22z"/><path d="m42.82 8.32a.15.15 0 0 1 0 .08.1.1 0 0 1 0 .08l-.1.09a1.62 1.62 0 0 1 -.26.22c-.1.1-.22.2-.36.32l-.41.36a6.16 6.16 0 0 1 -.9.62 2.06 2.06 0 0 1 -.36.15.47.47 0 0 1 -.33 0 .32.32 0 0 1 -.14-.3 1.89 1.89 0 0 1 .22-.72c0-.1.1-.2.16-.32s.13-.22.21-.35a2.26 2.26 0 0 0 -.29.23l-.28.18a1.28 1.28 0 0 1 -.38.16.56.56 0 0 1 -.36 0 .5.5 0 0 1 -.34-.38 1.85 1.85 0 0 1 .28-1.07 3.92 3.92 0 0 1 .24-.42l.08-.25a.3.3 0 0 1 .26-.12 1.75 1.75 0 0 1 .32 0 .48.48 0 0 1 .22.16c.06.08 0 .14 0 .22a1.73 1.73 0 0 0 -.14.2 1.21 1.21 0 0 1 -.14.2c0 .08-.1.16-.14.24a1.46 1.46 0 0 0 -.22.56c0 .11 0 .17.1.17a.71.71 0 0 0 .32-.12 2.1 2.1 0 0 0 .47-.35l.3-.28.26-.26a3.08 3.08 0 0 0 .24-.26.32.32 0 0 1 .14-.08.67.67 0 0 1 .2 0l.2.06a.47.47 0 0 1 .18.12.31.31 0 0 1 .07.14.13.13 0 0 1 0 .14c-.07.1-.15.18-.23.28s-.14.18-.24.28-.18.21-.26.33-.34.46-.44.64a.85.85 0 0 0 -.18.38q0 .09.18 0a5 5 0 0 0 .62-.46c.14-.12.28-.24.4-.36s.23-.22.33-.32l.34-.31a.15.15 0 0 1 .1 0 1.47 1.47 0 0 0 .06.12z"/><path d="m45.33 9.81a.09.09 0 0 1 0 .1.16.16 0 0 1 -.08.08 5.44 5.44 0 0 1 -.5.24l-.52.23-.59.28-.44.2a5 5 0 0 1 -.58.22 3.42 3.42 0 0 1 -.55.14.69.69 0 0 1 -.42 0 .2.2 0 0 1 -.1-.12.5.5 0 0 1 0-.18c.06-.3.5-.81 1.35-1.47.18-.14.36-.28.54-.4l.43-.3a3 3 0 0 1 -.47-.12 4 4 0 0 1 -.54-.21.72.72 0 0 1 -.42-.6 1 1 0 0 1 .2-.68 1.38 1.38 0 0 1 .22-.26.73.73 0 0 1 .26-.17.69.69 0 0 1 .62 0 .66.66 0 0 1 .26.11.45.45 0 0 1 .06.2c0 .24-.18.52-.55.84a1.8 1.8 0 0 0 -.2.18 1.1 1.1 0 0 1 -.18.14 3.33 3.33 0 0 0 .4.16l.37.1.4.05a.22.22 0 0 1 .1 0l.18.06a.93.93 0 0 1 .2.1l.16.12a.18.18 0 0 1 .06.15s0 .08-.1.12a3.15 3.15 0 0 0 -.38.24l-.4.24-.45.3c-.36.26-.64.45-.82.61a1.06 1.06 0 0 0 -.32.34q0 .09.24 0c.18-.06.46-.18.86-.36l.57-.27a5.44 5.44 0 0 1 .5-.24c.14-.08.32-.16.5-.24a.22.22 0 0 1 .1 0zm-2.07-2 .18-.18a1.42 1.42 0 0 0 .2-.28.48.48 0 0 0 .08-.26c0-.08-.06-.14-.18-.16a.29.29 0 0 0 -.22 0 .64.64 0 0 0 -.2.2c-.06.08-.12.18-.18.28l-.12.3a1.48 1.48 0 0 0 0 .24.19.19 0 0 0 0 .14l.18-.09a.61.61 0 0 0 .26-.2z"/><path d="m48.37 12.51a.09.09 0 0 1 0 .1s0 .06-.08.06h-.14l-.34.1-.48.12c-.17 0-.35.1-.55.14a8.34 8.34 0 0 1 -1.16.18 1.21 1.21 0 0 1 -.85-.18.31.31 0 0 1 -.1-.34.82.82 0 0 1 .16-.28 1.21 1.21 0 0 1 .34-.28 3.88 3.88 0 0 1 .45-.29l.52-.3.44-.24.42-.2a1.5 1.5 0 0 0 .27-.22c0-.06.08-.1.08-.12a.41.41 0 0 0 -.35-.16 2.05 2.05 0 0 0 -.52.08 7.48 7.48 0 0 0 -.84.3 12.07 12.07 0 0 0 -1.19.6.38.38 0 0 1 -.3.06 1.05 1.05 0 0 1 -.3-.1.52.52 0 0 1 -.19-.2q-.06-.12 0-.18c.17-.2.35-.38.51-.54a5.51 5.51 0 0 1 .46-.43c.14-.12.28-.26.44-.42a.25.25 0 0 1 .26-.06.54.54 0 0 1 .27.16.57.57 0 0 1 .16.28.26.26 0 0 1 -.1.27l-.17.16-.54.48.5-.24c.15-.08.33-.14.49-.22s.32-.12.48-.16a3.53 3.53 0 0 1 .4-.08 1.25 1.25 0 0 1 .38 0 1 1 0 0 1 .35.14.89.89 0 0 1 .3.24.69.69 0 0 1 .16.32.64.64 0 0 1 -.06.38 1 1 0 0 1 -.3.34c-.14.1-.3.19-.47.29s-.38.18-.58.28a5.19 5.19 0 0 0 -.72.4c-.16.12-.26.18-.26.24s.08.06.28 0a7.45 7.45 0 0 0 .86-.18l.53-.14c.18 0 .32-.1.46-.14l.44-.14a.13.13 0 0 1 .12 0 .15.15 0 0 1 .06.12z"/><path d="m49.92 14.46v.1a.15.15 0 0 1 -.1 0h-1.88a1.75 1.75 0 0 1 -.32 0l-.32-.06a2 2 0 0 1 -.29-.1.69.69 0 0 1 -.24-.18.4.4 0 0 1 -.08-.4 1.83 1.83 0 0 1 .28-.53 3.84 3.84 0 0 1 .71-.68 3.05 3.05 0 0 1 1-.46 2.26 2.26 0 0 1 .33 0 .78.78 0 0 1 .3 0 1.06 1.06 0 0 1 .5.24.77.77 0 0 1 .26.38.44.44 0 0 1 0 .28.52.52 0 0 1 -.2.22c-.24.14-.62.06-1.13-.22-.1.06-.2.14-.34.22a4.61 4.61 0 0 0 -.38.28c-.12.1-.22.17-.32.27a.73.73 0 0 0 -.18.24.15.15 0 0 0 .06.18.83.83 0 0 0 .42.08h1.79a.15.15 0 0 1 .12 0zm-.92-1.46.26.1h.36s.08 0 .08-.06h-.06a.76.76 0 0 0 -.64-.04z"/><path d="m52.11 18.22s0 .06-.06.1a.22.22 0 0 1 -.12 0 8.91 8.91 0 0 1 -1.16-.3c-.35-.12-.69-.24-1-.38a8.56 8.56 0 0 1 -3.18.58 3.19 3.19 0 0 1 -.68-.12 2.07 2.07 0 0 1 -.49-.2l-.16-.12-.12-.12a.56.56 0 0 1 -.08-.3.76.76 0 0 1 .4-.53 2.18 2.18 0 0 1 1-.32 3.21 3.21 0 0 1 .62 0 3 3 0 0 1 .59.1c.2 0 .4.1.6.16s.4.14.6.22.29-.12.43-.16l.6-.26c.2-.08.36-.16.52-.24h-.44a4.53 4.53 0 0 1 -1-.08 1.21 1.21 0 0 1 -.76-.42.62.62 0 0 1 -.08-.61 1.56 1.56 0 0 1 .89-.7 3.57 3.57 0 0 1 .46-.18l.22-.06a.35.35 0 0 1 .3.08.67.67 0 0 1 .22.26.46.46 0 0 1 .06.32.28.28 0 0 1 -.22.22h-.16l-.2.06-.26.09a1.43 1.43 0 0 0 -.53.32c-.08.1-.08.16 0 .22a.74.74 0 0 0 .37.14 3.13 3.13 0 0 0 .64 0h.44a3.08 3.08 0 0 1 .38 0l.25.01c.06 0 .12 0 .22.08a1 1 0 0 1 .24.26.73.73 0 0 1 .14.34c0 .12 0 .2-.08.24a3.9 3.9 0 0 1 -.44.19l-.47.22-.6.24.85.3a6.73 6.73 0 0 0 1 .24.17.17 0 0 1 .12.06c.11-.03.13.01.13.05zm-6.47-1.22c-.15.1-.23.17-.23.25a.18.18 0 0 0 .13.16 1.13 1.13 0 0 0 .36.1 3.27 3.27 0 0 0 .44 0 3.79 3.79 0 0 0 .89-.08 7.85 7.85 0 0 0 1.24-.34 9 9 0 0 0 -1-.31 3.37 3.37 0 0 0 -1-.08 1.8 1.8 0 0 0 -.83.3z"/></g></svg>