<svg id="Layer_1" data-name="Layer 1" xmlns="http://www.w3.org/2000/svg" viewBox="0 0 64 64"><defs><style>.cls-1{fill:#459baa;}</style></defs><title>logo-64</title><path class="cls-1" d="M36.8,26.91l.08-.18a2.81,2.81,0,0,0,.23-1A10.59,10.59,0,0,0,37,22.91c-.79-3-3-3.8-5.9-2.94C28.48,20.72,27,28,32.28,32.18c5,4,3.3,16.24-1.55,18.43,0,0,8.21-4.57,7.72-11.63-.4-5.55-2.23-6.62-5.59-8.93-1.37-.94-.82-.44.22.12A1.94,1.94,0,0,0,35.88,29,12.9,12.9,0,0,1,36.8,26.91Z"/><path class="cls-1" d="M35.48,30.79s1.12-2.87,8.24-3.15S53.88,18,53.88,18c0-.62-.86,13.22-8.61,13C43.54,31.14,38.7,28.68,35.48,30.79Z"/><path class="cls-1" d="M31.21,32.52s-1.67-4.14-8.79-4.42-10.16-9.64-10.16-9.64.81,13.22,8.61,13C22.6,31.6,28,30.41,31.21,32.52Z"/><path class="cls-1" d="M43.4,50.59c5.21-1.63,7,0,7.63,2.15.8,2.48-2.5,8.71-10.06,4.73C35.46,53.59,30.91,52.74,28.78,53c0,0,10.3-3,11.12-11.42a53.28,53.28,0,0,1-.76,7,6.29,6.29,0,0,0,3.74,7.1c1.65.66,4.47,1.13,4.85-1.11C48.43,50.59,43.4,50.59,43.4,50.59Z"/><path class="cls-1" d="M38.47,58.76a26.13,26.13,0,0,0-12.57-.89C19.24,59.14,12.76,55.26,15,51.19c1.93-2.61,7.26-1.65,7.26-1.65s9,1.65,7.36-8.89a9.92,9.92,0,0,0-8.71-7.54s4.49-1.45,7.44-.77c3.38.77,5.7,3.77,5.72,7.73a13.1,13.1,0,0,1-6.9,11.69C21.54,54.77,38.47,58.76,38.47,58.76Z"/><path class="cls-1" d="M19,13a.15.15,0,0,1,.1,0s.06,0,.1,0,.24.26.32.36.2.24.31.37l.38.44a10.63,10.63,0,0,1,.68.9c0,.06.06.12.1.18a.85.85,0,0,1,.08.17.58.58,0,0,1,0,.18.22.22,0,0,1,0,.16h0c-.08.12-.26.18-.54.16a7,7,0,0,1-1.23-.24l-.76-.22c-.26-.07-.53-.17-.81-.27s-.26-.1-.38-.14L17,14.88a3.85,3.85,0,0,1,0,.48c0,.15,0,.31,0,.47v.5c.74.16,1.33.3,1.75.44a2.62,2.62,0,0,1,.84.37.19.19,0,0,1,.08.18.4.4,0,0,1-.06.22.44.44,0,0,1-.14.18.17.17,0,0,1-.16,0l-.06,0s0,0,0-.06,0,0,0-.06a.28.28,0,0,0-.08-.06,1.67,1.67,0,0,0-.24-.08c-.1,0-.2-.06-.34-.1a5.27,5.27,0,0,0-.65-.14c-.24,0-.5-.1-.78-.14a1.07,1.07,0,0,0,.22.48.69.69,0,0,0,.38.24s.06,0,.08.06a.12.12,0,0,1,0,.08s0,0-.06.06a.22.22,0,0,1-.1,0,1,1,0,0,1-.52-.28,2.09,2.09,0,0,1-.16-.22c0-.08-.08-.18-.12-.28a.59.59,0,0,1,0-.17,5.27,5.27,0,0,0-.81-.14c-.28,0-.56-.06-.86-.12a1.27,1.27,0,0,1,0,.27,1.32,1.32,0,0,1,0,.28,5.07,5.07,0,0,0,.08.58,1.69,1.69,0,0,0,.16.48.78.78,0,0,0,.28.34,1.19,1.19,0,0,0,.46.15s.06,0,.1,0,0,.06,0,.08a.11.11,0,0,1-.06.08.22.22,0,0,1-.1,0,1.16,1.16,0,0,1-1-.59A2.28,2.28,0,0,1,14.9,18a5.82,5.82,0,0,1-.08-.62c0-.12,0-.22,0-.32s0-.21,0-.31a7,7,0,0,1-.83-.18,2.24,2.24,0,0,1-.6-.22,1,1,0,0,1-.4-.4.88.88,0,0,1-.05-.48.8.8,0,0,1,.19-.35.82.82,0,0,1,.8-.24,1.13,1.13,0,0,1,.46.24,1.79,1.79,0,0,1,.51.75l.88.18.91.18v-.46a4.61,4.61,0,0,1,0-.53c0-.18,0-.36,0-.54a4.06,4.06,0,0,1-.51-.26c-.24-.12-.46-.26-.66-.38a2.51,2.51,0,0,1-.48-.38,1.79,1.79,0,0,1-.51-.79.91.91,0,0,1,.06-.66.61.61,0,0,1,.27-.28,1.06,1.06,0,0,1,.4-.09,1,1,0,0,1,.7.21,2.73,2.73,0,0,1,.65.7A2.49,2.49,0,0,1,16.91,14c.42.22.88.44,1.37.64l.84.32a6.87,6.87,0,0,0,.73.24,5.49,5.49,0,0,0,.54.14.54.54,0,0,0,.26,0s.06-.06,0-.14a1.31,1.31,0,0,0-.12-.24,3.06,3.06,0,0,0-.26-.32l-.34-.4c-.12-.14-.23-.3-.35-.42l-.32-.35L19,13.11a.15.15,0,0,1,0-.08S19,13,19,13Zm-4.85,2.39a.69.69,0,0,0-.32-.16.63.63,0,0,0-.26,0,.11.11,0,0,0-.08.12c0,.06.1.15.28.25a1,1,0,0,0,.32.14c.12,0,.28.1.44.14a1.83,1.83,0,0,0-.16-.26Zm1.67-3a.81.81,0,0,0-.54-.16.09.09,0,0,0-.1.1.52.52,0,0,0,.06.22,2,2,0,0,0,.16.28,1.51,1.51,0,0,0,.22.28,2.87,2.87,0,0,0,.44.38c.18.14.39.25.61.39a3,3,0,0,0-.1-.47,1.16,1.16,0,0,0-.2-.42,3.27,3.27,0,0,0-.25-.36A3.15,3.15,0,0,0,15.84,12.33Z"/><path class="cls-1" d="M20.25,11.54h.1a.16.16,0,0,1,.08.08c.12.24.26.45.38.69s.22.44.32.62.06.16.1.24a.53.53,0,0,1,.06.24.41.41,0,0,1,0,.22.36.36,0,0,1-.08.19.41.41,0,0,1-.34.12,2,2,0,0,1-.6-.12,5.74,5.74,0,0,1-.89-.39,3,3,0,0,1-.78-.62,1.67,1.67,0,0,1-.16-.24,1.52,1.52,0,0,1-.08-.22.68.68,0,0,1,.06-.4.49.49,0,0,1,.28-.23.53.53,0,0,1,.52.06c.22.14.28.43.22.85l.33.2a2.56,2.56,0,0,0,.4.22,2.13,2.13,0,0,0,.38.18.67.67,0,0,0,.28.08c.08,0,.12,0,.14-.08a.48.48,0,0,0-.06-.3c-.08-.18-.2-.4-.32-.62l-.36-.65a.15.15,0,0,1,0-.08Zm-1.05.89v-.2a.29.29,0,0,0,0-.14s0-.06,0-.08,0,0,0,0a.15.15,0,0,0-.08,0,0,0,0,0,0,0,0A.57.57,0,0,0,19.2,12.43Z"/><path class="cls-1" d="M22.2,9.75s.06,0,.1,0a.28.28,0,0,1,.08.06l.06.12a2.29,2.29,0,0,0,.16.28,2.79,2.79,0,0,1,.2.39,3.25,3.25,0,0,1,.22.46c0,.1.1.22.16.36s.11.3.17.44a3.48,3.48,0,0,1,.1.41.32.32,0,0,1-.08.28c-.08.08-.19.08-.35,0a2.08,2.08,0,0,1-.66-.46,7.12,7.12,0,0,1-.56-.55l.12.3a1.8,1.8,0,0,1,.1.33,1.72,1.72,0,0,1,0,.32.45.45,0,0,1-.12.26l-.12.06a.45.45,0,0,1-.22,0,2.44,2.44,0,0,1-.33-.14,2.48,2.48,0,0,1-.48-.32,2.07,2.07,0,0,1-.62-.65.63.63,0,0,1,0-.56.68.68,0,0,1,.38-.32,1.36,1.36,0,0,1,.64,0l-.28-.4a.12.12,0,0,1,0-.17.44.44,0,0,1,.2-.18.64.64,0,0,1,.28-.06c.1,0,.17.06.25.18l.16.21.2.26.26.34.52.6a1.76,1.76,0,0,0,.34.3q.09.06.06-.12a5,5,0,0,0-.28-.66c-.08-.16-.16-.3-.22-.44s-.14-.28-.2-.38l-.22-.37a.15.15,0,0,1,0-.08S22.18,9.77,22.2,9.75Zm-.52,2.15a2.27,2.27,0,0,0-.18-.4,1.75,1.75,0,0,0-.23-.42h0a1,1,0,0,0-.44-.06.12.12,0,0,0-.1.16.74.74,0,0,0,.16.3c.1.12.22.24.36.38l.26.21a.59.59,0,0,0,.19.12s.08,0,.08,0A.61.61,0,0,0,21.68,11.9Z"/><path class="cls-1" d="M24.47,8.28a.18.18,0,0,1,.1,0s.06,0,.06.08l.06.17a4.23,4.23,0,0,0,.16.44c.06.18.13.4.19.62s.16.48.22.71a10.69,10.69,0,0,1,.36,1.44c0,.08,0,.16,0,.25a1.14,1.14,0,0,1,0,.26.72.72,0,0,1,0,.22.44.44,0,0,1-.1.16q-.18.12-.54-.06a5.21,5.21,0,0,1-.75-.52,11.19,11.19,0,0,1-.86-.79c-.31-.32-.65-.66-1-1s-.68-.79-1-1.19a10.18,10.18,0,0,1-.76-1.13,2.86,2.86,0,0,1-.38-1,.59.59,0,0,1,.52-.79.86.86,0,0,1,.32,0,.94.94,0,0,1,.3.12,1.71,1.71,0,0,1,.27.2,2.32,2.32,0,0,1,.52.69,4.63,4.63,0,0,1,.32.88c0,.18.06.34.08.49a3.84,3.84,0,0,1,0,.48.39.39,0,0,1,0,.14s0,.08,0,.14c.34.46.69.88,1.05,1.29l.44.48c.16.16.3.32.46.46s.28.26.41.38a2.43,2.43,0,0,0,.32.21.13.13,0,0,0,.18,0c0-.06,0-.17,0-.35A12.9,12.9,0,0,0,25,10.36c-.08-.23-.15-.47-.23-.69s-.14-.44-.22-.62-.14-.38-.22-.59a.09.09,0,0,1,0-.1C24.43,8.3,24.45,8.28,24.47,8.28ZM21.54,6.65c-.13-.12-.23-.2-.29-.2a.09.09,0,0,0-.1.1,1.1,1.1,0,0,0,.06.31c0,.14.1.28.16.44a4.69,4.69,0,0,0,.21.46c.08.16.16.28.22.4a3.71,3.71,0,0,0,.28.41l.3.42a3.6,3.6,0,0,0-.06-.91,3,3,0,0,0-.3-.8A2.13,2.13,0,0,0,21.54,6.65Z"/><path class="cls-1" d="M25.9,7.68a.28.28,0,0,1,.06.08c.06.16.1.32.14.44s.08.28.12.45l.12.52c0,.22.08.42.12.58s0,.32.06.44a.8.8,0,0,1,0,.39.33.33,0,0,1-.16.2.32.32,0,0,1-.26,0,1,1,0,0,1-.34-.28,4.46,4.46,0,0,1-.6-.81,3.28,3.28,0,0,1-.25-.44c-.08-.14-.16-.28-.24-.4s-.12-.22-.16-.29l-.06-.12c0-.06,0-.1.06-.16a.83.83,0,0,1,.22-.14.63.63,0,0,1,.27,0,.29.29,0,0,1,.22.18s0,.08.1.24.18.35.3.59c.36.64.56,1,.66,1s0-.3-.1-.9a3.65,3.65,0,0,0-.14-.5c0-.15-.08-.31-.12-.43s-.08-.28-.14-.44v-.1s0,0,.06-.06S25.88,7.66,25.9,7.68ZM24.25,7A.33.33,0,0,0,24,7a.25.25,0,0,0-.14.18.34.34,0,0,0,0,.24.25.25,0,0,0,.18.14.28.28,0,0,0,.22,0,.25.25,0,0,0,.14-.18.28.28,0,0,0,0-.22A.22.22,0,0,0,24.25,7Z"/><path class="cls-1" d="M29,6.57a.1.1,0,0,1,.08,0s0,.06,0,.1v.11a1.73,1.73,0,0,1,0,.3,3.66,3.66,0,0,1,0,.42c0,.16,0,.32,0,.48a6.22,6.22,0,0,1-.18,1c-.1.32-.22.52-.4.58a.25.25,0,0,1-.29-.08A1,1,0,0,1,28,9.21a2.13,2.13,0,0,1-.14-.38c0-.14-.08-.3-.12-.47s-.06-.34-.1-.52-.06-.3-.08-.44-.06-.28-.08-.4-.08-.23-.1-.29l-.08-.12,0,0h-.06c-.06,0-.1.08-.16.16a1.27,1.27,0,0,0-.1.41,3.34,3.34,0,0,0,0,.76c0,.32.08.69.16,1.17a.3.3,0,0,1,0,.26.52.52,0,0,1-.18.18.46.46,0,0,1-.22.06.13.13,0,0,1-.15-.1c-.12-.22-.22-.44-.32-.64l-.26-.53c-.08-.16-.14-.34-.22-.52a.21.21,0,0,1,0-.22A.52.52,0,0,1,26,7.42a.76.76,0,0,1,.3,0,.29.29,0,0,1,.2.2,1.4,1.4,0,0,1,.08.22c.06.14.13.34.23.62L26.71,8a3.7,3.7,0,0,1,0-.46,2.68,2.68,0,0,1,0-.42.68.68,0,0,1,.06-.31.48.48,0,0,1,.14-.26,1.15,1.15,0,0,1,.22-.22.7.7,0,0,1,.28-.12.87.87,0,0,1,.32,0,.78.78,0,0,1,.3.22,1,1,0,0,1,.18.37,2.75,2.75,0,0,1,.1.5c0,.18,0,.36.05.56s.08.54.12.71.08.28.12.3.08,0,.1-.18A5.89,5.89,0,0,0,28.8,8a3.88,3.88,0,0,0,0-.48,3,3,0,0,0,0-.4c0-.12,0-.26,0-.39a.1.1,0,0,1,0-.08C29,6.57,29,6.55,29,6.57Z"/><path class="cls-1" d="M32,6.13l.06.06s0,.06,0,.1a3.78,3.78,0,0,1-.33.57c-.14.2-.3.42-.48.64q0,.18.06.42c0,.16,0,.34,0,.52s0,.37,0,.55a5.06,5.06,0,0,1,0,.56,4.12,4.12,0,0,1-.06.52,2.05,2.05,0,0,1-.1.41A3.37,3.37,0,0,1,31,11a1,1,0,0,1-.26.34.5.5,0,0,1-.24.14.38.38,0,0,1-.26,0,.47.47,0,0,1-.19-.18.94.94,0,0,1-.16-.28,2,2,0,0,1-.1-.79c0-.2.06-.4.1-.6A2.62,2.62,0,0,1,30,9.05l.23-.53c.1-.18.2-.34.3-.5s-.06-.42-.1-.64-.08-.42-.14-.63a3.78,3.78,0,0,1-.12.57c0,.18-.1.32-.14.46A1.34,1.34,0,0,1,30,8l-.12.18a.47.47,0,0,1-.14.14.19.19,0,0,1-.18,0,.51.51,0,0,1-.4-.24,1.53,1.53,0,0,1-.3-.68,1.46,1.46,0,0,1,0-.83A1.59,1.59,0,0,1,29,6.25a1.06,1.06,0,0,1,.24-.2.53.53,0,0,1,.54.06,1,1,0,0,1,.33.34c0-.06,0-.12,0-.18a.55.55,0,0,1,0-.18.13.13,0,0,1,0-.1l.12-.12.16-.12a.32.32,0,0,1,.18-.06.23.23,0,0,1,.16,0,.2.2,0,0,1,.1.12,3.53,3.53,0,0,1,.08.4,3.53,3.53,0,0,0,.08.4c0,.16.06.31.08.47l.38-.51a1.58,1.58,0,0,0,.25-.48s0-.06.06-.06S32,6.13,32,6.13ZM29.94,10.3a1.68,1.68,0,0,0,0,.58.39.39,0,0,0,.17.26q.12,0,.24-.12a1.41,1.41,0,0,0,.22-.54,3,3,0,0,0,.08-.83,10.38,10.38,0,0,0-.08-1.27,5.18,5.18,0,0,0-.46.91A7.57,7.57,0,0,0,29.94,10.3Zm0-2.58a3.75,3.75,0,0,0,.19-.84.63.63,0,0,0-.23-.37.16.16,0,0,0-.2,0,.6.6,0,0,0-.1.31,1.63,1.63,0,0,0,0,.44,2.08,2.08,0,0,1,.06.24c0,.1.06.16.08.24s.06.1.1.1S29.9,7.82,29.94,7.72Z"/><path class="cls-1" d="M37.67,6.51a.15.15,0,0,1,0,.08s0,.06,0,.1a2,2,0,0,1-.32.25,1.12,1.12,0,0,1-.32.14,1.77,1.77,0,0,1-.33.08,2.2,2.2,0,0,1-.36,0A13,13,0,0,1,35.78,9a11.75,11.75,0,0,1-.52,1.1,2.56,2.56,0,0,1-.59.73,1.3,1.3,0,0,1-.76.36h0a.48.48,0,0,1-.45-.36,1.79,1.79,0,0,1-.14-.52,3.39,3.39,0,0,1,0-.65A2.36,2.36,0,0,1,33.48,9a2.27,2.27,0,0,1,.35-.65,3.56,3.56,0,0,1,1.34-1.08,2,2,0,0,1,.43-.14c.08-.45.14-.91.18-1.35s.06-.85.06-1.23c0,0,0,0,0,0a6.09,6.09,0,0,1-1,1.23,2.31,2.31,0,0,1-1.41.58.1.1,0,0,1-.08,0,.15.15,0,0,1,0-.08.1.1,0,0,1,0-.08.15.15,0,0,1,.08,0c.79,0,1.49-.56,2.22-1.67L36,3.82c.1-.2.2-.38.28-.55s.16-.34.24-.54a.13.13,0,0,1,.16-.08.14.14,0,0,1,.12.12s0,.1,0,.32V3.9c0,.34,0,.72-.06,1.16s-.1.87-.18,1.33l-.06.32c0,.09,0,.19-.06.31l.32,0L37,6.92a.62.62,0,0,0,.26-.12l.26-.19a.15.15,0,0,1,.08,0C37.63,6.47,37.65,6.47,37.67,6.51ZM33.44,9.67a2.7,2.7,0,0,0,0,.57,1.27,1.27,0,0,0,.11.42.28.28,0,0,0,.24.16.63.63,0,0,0,.38-.2,2.81,2.81,0,0,0,.68-1.07,11.89,11.89,0,0,0,.55-1.73l.06-.24a1,1,0,0,0,0-.24,3.44,3.44,0,0,0-.37.14l-.4.22a2.8,2.8,0,0,0-.4.32,4.47,4.47,0,0,0-.42.44,2.46,2.46,0,0,0-.34.57C33.53,9.23,33.48,9.45,33.44,9.67Z"/><path class="cls-1" d="M39.7,7.18s0,.06,0,.1,0,.06-.08.06a.58.58,0,0,1-.4,0l-.1,0L39,7.28l-.08-.08a.44.44,0,0,1-.08-.1,1.16,1.16,0,0,1-.1.32,1.32,1.32,0,0,1-.45.62,1.51,1.51,0,0,1-.36.18.67.67,0,0,1-.34,0,.89.89,0,0,1-.34-.16,1.51,1.51,0,0,1-.22-.28A1.69,1.69,0,0,1,37,7.46,1.36,1.36,0,0,1,37,7.08a.89.89,0,0,1,.18-.35,1.35,1.35,0,0,1,.28-.3,1,1,0,0,1,.86-.16.61.61,0,0,1,.31.16,3.48,3.48,0,0,1,.24.28c.06.08.1.15.14.21a1.14,1.14,0,0,0,.14.16.23.23,0,0,0,.16.06.3.3,0,0,0,.18,0,.09.09,0,0,1,.1,0A.16.16,0,0,1,39.7,7.18Zm-1.87.14a.66.66,0,0,0,0,.4.22.22,0,0,0,.2.14.48.48,0,0,0,.28-.12,1.15,1.15,0,0,0,.26-.38,1.47,1.47,0,0,0,.08-.28.72.72,0,0,0,0-.26.4.4,0,0,0-.1-.17.59.59,0,0,0-.26.1.75.75,0,0,0-.2.15.72.72,0,0,0-.14.2A.69.69,0,0,0,37.83,7.32Z"/><path class="cls-1" d="M42.82,8.32a.15.15,0,0,1,0,.08.1.1,0,0,1,0,.08l-.1.09a1.62,1.62,0,0,1-.26.22c-.1.1-.22.2-.36.32l-.41.36a6.16,6.16,0,0,1-.9.62,2.06,2.06,0,0,1-.36.15.47.47,0,0,1-.33,0h0l0,0a.32.32,0,0,1-.14-.3,1.89,1.89,0,0,1,.22-.72c0-.1.1-.2.16-.32s.13-.22.21-.35a2.26,2.26,0,0,0-.29.23l-.28.18a1.28,1.28,0,0,1-.38.16.56.56,0,0,1-.36,0,.5.5,0,0,1-.34-.38,1.85,1.85,0,0,1,.28-1.07,3.92,3.92,0,0,1,.24-.42L39.5,7a.3.3,0,0,1,.26-.12,1.75,1.75,0,0,1,.32,0,.48.48,0,0,1,.22.16c.06.08,0,.14,0,.22a1.73,1.73,0,0,0-.14.2,1.21,1.21,0,0,1-.14.2c0,.08-.1.16-.14.24a1.46,1.46,0,0,0-.22.56c0,.11,0,.17.1.17a.71.71,0,0,0,.32-.12,2.1,2.1,0,0,0,.47-.35l.3-.28.26-.26a3.08,3.08,0,0,0,.24-.26.32.32,0,0,1,.14-.08.67.67,0,0,1,.2,0l.2.06a.47.47,0,0,1,.18.12.31.31,0,0,1,.07.14.13.13,0,0,1,0,.14c-.07.1-.15.18-.23.28s-.14.18-.24.28-.18.21-.26.33-.34.46-.44.64a.85.85,0,0,0-.18.38q0,.09.18,0a5,5,0,0,0,.62-.46c.14-.12.28-.24.4-.36s.23-.22.33-.32l.34-.31a.15.15,0,0,1,.1,0A1.47,1.47,0,0,0,42.82,8.32Z"/><path class="cls-1" d="M45.33,9.81a.09.09,0,0,1,0,.1.16.16,0,0,1-.08.08,5.44,5.44,0,0,1-.5.24l-.52.23-.59.28-.44.2a5,5,0,0,1-.58.22,3.42,3.42,0,0,1-.55.14.69.69,0,0,1-.42,0,.2.2,0,0,1-.1-.12.5.5,0,0,1,0-.18c.06-.3.5-.81,1.35-1.47.18-.14.36-.28.54-.4l.43-.3a3,3,0,0,1-.47-.12,4,4,0,0,1-.54-.21.72.72,0,0,1-.42-.6,1,1,0,0,1,.2-.68,1.38,1.38,0,0,1,.22-.26.73.73,0,0,1,.26-.17.69.69,0,0,1,.62,0A.66.66,0,0,1,44,6.9a.45.45,0,0,1,.06.2c0,.24-.18.52-.55.84a1.8,1.8,0,0,0-.2.18,1.1,1.1,0,0,1-.18.14,3.33,3.33,0,0,0,.4.16l.37.1.4.05a.22.22,0,0,1,.1,0l.18.06a.93.93,0,0,1,.2.1l.16.12A.18.18,0,0,1,45,9s0,.08-.1.12a3.15,3.15,0,0,0-.38.24l-.4.24-.45.3c-.36.26-.64.45-.82.61a1.06,1.06,0,0,0-.32.34q0,.09.24,0c.18-.06.46-.18.86-.36l.57-.27a5.44,5.44,0,0,1,.5-.24c.14-.08.32-.16.5-.24a.22.22,0,0,1,.1,0Zm-2.07-2,.18-.18a1.42,1.42,0,0,0,.2-.28.48.48,0,0,0,.08-.26c0-.08-.06-.14-.18-.16a.29.29,0,0,0-.22,0,.64.64,0,0,0-.2.2c-.06.08-.12.18-.18.28l-.12.3a1.48,1.48,0,0,0,0,.24.19.19,0,0,0,0,.14L43,8A.61.61,0,0,0,43.26,7.8Z"/><path class="cls-1" d="M48.37,12.51a.09.09,0,0,1,0,.1s0,.06-.08.06l-.14,0-.34.1-.48.12c-.17,0-.35.1-.55.14a8.34,8.34,0,0,1-1.16.18,1.21,1.21,0,0,1-.85-.18.31.31,0,0,1-.1-.34.82.82,0,0,1,.16-.28,1.21,1.21,0,0,1,.34-.28,3.88,3.88,0,0,1,.45-.29l.52-.3.44-.24L47,11.1a1.5,1.5,0,0,0,.27-.22c0-.06.08-.1.08-.12v0s0,0,0,0A.41.41,0,0,0,47,10.6a2.05,2.05,0,0,0-.52.08,7.48,7.48,0,0,0-.84.3,12.07,12.07,0,0,0-1.19.6.38.38,0,0,1-.3.06,1.05,1.05,0,0,1-.3-.1.52.52,0,0,1-.19-.2q-.06-.12,0-.18c.17-.2.35-.38.51-.54a5.51,5.51,0,0,1,.46-.43c.14-.12.28-.26.44-.42a.25.25,0,0,1,.26-.06.54.54,0,0,1,.27.16.57.57,0,0,1,.16.28.26.26,0,0,1-.1.27l-.17.16-.54.48.5-.24c.15-.08.33-.14.49-.22s.32-.12.48-.16a3.53,3.53,0,0,1,.4-.08,1.25,1.25,0,0,1,.38,0,1,1,0,0,1,.35.14.89.89,0,0,1,.3.24.69.69,0,0,1,.16.32.64.64,0,0,1-.06.38,1,1,0,0,1-.3.34c-.14.1-.3.19-.47.29s-.38.18-.58.28a5.19,5.19,0,0,0-.72.4c-.16.12-.26.18-.26.24s.08.06.28,0a7.45,7.45,0,0,0,.86-.18l.53-.14c.18,0,.32-.1.46-.14l.44-.14a.13.13,0,0,1,.12,0A.15.15,0,0,1,48.37,12.51Z"/><path class="cls-1" d="M49.92,14.46s0,.08,0,.1a.15.15,0,0,1-.1,0l-1,0c-.32,0-.6,0-.88,0a1.75,1.75,0,0,1-.32,0l-.32-.06a2,2,0,0,1-.29-.1.69.69,0,0,1-.24-.18.4.4,0,0,1-.08-.4,1.83,1.83,0,0,1,.28-.53,3.84,3.84,0,0,1,.71-.68,3.05,3.05,0,0,1,1-.46,2.26,2.26,0,0,1,.33,0,.78.78,0,0,1,.3,0,1.06,1.06,0,0,1,.5.24.77.77,0,0,1,.26.38.44.44,0,0,1,0,.28.52.52,0,0,1-.2.22c-.24.14-.62.06-1.13-.22-.1.06-.2.14-.34.22a4.61,4.61,0,0,0-.38.28c-.12.1-.22.17-.32.27a.73.73,0,0,0-.18.24.15.15,0,0,0,.06.18.83.83,0,0,0,.42.08h.86l.93,0a.15.15,0,0,1,.12,0ZM49,13l.26.1.18,0h.12l.06,0s.08,0,.08-.06l-.06,0A.76.76,0,0,0,49,13Z"/><path class="cls-1" d="M52.11,18.22s0,.06-.06.1a.22.22,0,0,1-.12,0,8.91,8.91,0,0,1-1.16-.3c-.35-.12-.69-.24-1-.38h0a8.56,8.56,0,0,1-3.18.58,3.19,3.19,0,0,1-.68-.12,2.07,2.07,0,0,1-.49-.2l-.16-.12-.12-.12a.56.56,0,0,1-.08-.3.76.76,0,0,1,.4-.53,2.18,2.18,0,0,1,1-.32,3.21,3.21,0,0,1,.62,0,3,3,0,0,1,.59.1c.2,0,.4.1.6.16s.4.14.6.22.29-.12.43-.16l.6-.26c.2-.08.36-.16.52-.24l-.44,0a4.53,4.53,0,0,1-1-.08,1.21,1.21,0,0,1-.76-.42.62.62,0,0,1-.08-.61,1.56,1.56,0,0,1,.89-.7,3.57,3.57,0,0,1,.46-.18l.22-.06a.35.35,0,0,1,.3.08.67.67,0,0,1,.22.26.46.46,0,0,1,.06.32.28.28,0,0,1-.22.22s-.1,0-.16,0l-.2.06-.26.09a1.43,1.43,0,0,0-.53.32c-.08.1-.08.16,0,.22a.74.74,0,0,0,.37.14,3.13,3.13,0,0,0,.64,0l.44,0a3.08,3.08,0,0,1,.38,0L51,16c.06,0,.12,0,.22.08a1,1,0,0,1,.24.26.73.73,0,0,1,.14.34c0,.12,0,.2-.08.24a3.9,3.9,0,0,1-.44.19l-.47.22-.6.24.85.3a6.73,6.73,0,0,0,1,.24.17.17,0,0,1,.12.06C52.09,18.14,52.11,18.18,52.11,18.22ZM45.64,17c-.15.1-.23.17-.23.25a.18.18,0,0,0,.13.16,1.13,1.13,0,0,0,.36.1,3.27,3.27,0,0,0,.44,0,3.79,3.79,0,0,0,.89-.08,7.85,7.85,0,0,0,1.24-.34,9,9,0,0,0-1-.31,3.37,3.37,0,0,0-1-.08A1.8,1.8,0,0,0,45.64,17Z"/></svg>