<svg id="Layer_1" data-name="Layer 1" xmlns="http://www.w3.org/2000/svg" viewBox="0 0 256 256"><title>logo-256</title><path d="M146.83,108.74l.32-.73a10.69,10.69,0,0,0,1-4.22c.16-3.41.32-8.43-.49-11.35-3.24-12.17-12.08-15.49-24.08-12-10.62,3.08-16.62,32.84,4.86,49.78,20.44,16.14,13.46,66.25-6.32,75.17,0,0,33.49-18.65,31.46-47.44-1.62-22.62-9.08-27-22.78-36.4-5.6-3.81-3.33-1.79.89.48a7.9,7.9,0,0,0,11.43-4.94C143.67,114.41,146.83,108.74,146.83,108.74Z"/><path d="M141.48,124.55s4.54-11.68,33.57-12.81,41.43-39.41,41.43-39.41c.16-2.51-3.49,53.92-35.11,53.19C174.32,126,154.61,116,141.48,124.55Z"/><path d="M124.05,131.68s-6.82-16.86-35.84-18S46.77,74.27,46.77,74.27s3.33,53.93,35.11,53.2C88.94,128,110.83,123.09,124.05,131.68Z"/><path d="M173.75,205.39c21.24-6.65,28.38,0,31.14,8.75,3.24,10.14-10.22,35.52-41,19.3-22.46-15.81-41-19.3-49.71-18.16,0,0,42-12.33,45.33-46.54,0,0-.65,16.29-3.08,28.38a25.61,25.61,0,0,0,15.24,28.94c6.73,2.68,18.25,4.62,19.79-4.54C194.26,205.39,173.75,205.39,173.75,205.39Z"/><path d="M153.64,238.63s-24.08-8.84-51.24-3.65-53.6-10.62-44.6-27.24C65.67,197.12,87.4,201,87.4,201s36.65,6.73,30-36.25C109.13,135.17,81.88,134,81.88,134s18.33-5.92,30.33-3.16c13.78,3.16,23.27,15.41,23.35,31.54.08,12.81-5.19,35.52-28.14,47.68C84.64,222.33,153.64,238.63,153.64,238.63Z"/><path d="M74.34,51.9c.08-.09.24-.09.41-.09s.24.09.4.17c.49.56,1,1.05,1.3,1.46s.81,1,1.3,1.54l1.54,1.78A42.8,42.8,0,0,1,82,60.41c.17.24.25.49.41.73a2.9,2.9,0,0,1,.32.73,2.42,2.42,0,0,1,.17.73.85.85,0,0,1-.17.65h0c-.32.48-1,.73-2.19.65a30.1,30.1,0,0,1-5-1c-1-.24-2-.56-3.08-.89s-2.19-.73-3.33-1.13c-.57-.17-1.05-.41-1.54-.57s-1-.41-1.54-.65a15.9,15.9,0,0,1-.08,2c0,.64-.08,1.29-.08,1.94v2c3,.65,5.43,1.22,7.13,1.78a9.78,9.78,0,0,1,3.41,1.54.81.81,0,0,1,.32.73,1.62,1.62,0,0,1-.24.89,1.66,1.66,0,0,1-.57.73.66.66,0,0,1-.65.17.81.81,0,0,1-.24-.08c-.08-.09-.16-.17-.16-.25s-.16-.16-.16-.24a1.17,1.17,0,0,0-.33-.24,5.68,5.68,0,0,0-1-.33c-.41-.16-.81-.24-1.38-.4a20.46,20.46,0,0,0-2.67-.57c-1-.16-2-.41-3.17-.57a4.41,4.41,0,0,0,.89,1.95,2.87,2.87,0,0,0,1.55,1c.16,0,.24.08.32.24a.51.51,0,0,1,.08.33q0,.12-.24.24a.75.75,0,0,1-.41.08,4.19,4.19,0,0,1-2.11-1.13,8.76,8.76,0,0,1-.64-.9,11.22,11.22,0,0,1-.49-1.13,2.4,2.4,0,0,1-.16-.73,22.25,22.25,0,0,0-3.33-.57c-1.13-.16-2.27-.24-3.48-.48a5.38,5.38,0,0,1,.08,1.13,5.47,5.47,0,0,1,.08,1.14,20.83,20.83,0,0,0,.32,2.35,6.81,6.81,0,0,0,.65,1.94,3.1,3.1,0,0,0,1.14,1.38,4.11,4.11,0,0,0,1.86.65c.16,0,.24.08.41.16s.16.25.08.33a.42.42,0,0,1-.25.32.87.87,0,0,1-.4.08,4.63,4.63,0,0,1-3.89-2.43,8.93,8.93,0,0,1-.73-2.11,21.45,21.45,0,0,1-.33-2.51c-.08-.49-.08-.89-.16-1.3s-.08-.89-.16-1.3a26.08,26.08,0,0,1-3.41-.73,8.86,8.86,0,0,1-2.43-.89,3.83,3.83,0,0,1-1.62-1.62,4,4,0,0,1-.24-1.95A3.24,3.24,0,0,1,50,60.81a3.8,3.8,0,0,1,1.37-.89,3.75,3.75,0,0,1,1.87-.08,4.57,4.57,0,0,1,1.86,1,7.43,7.43,0,0,1,2.11,3.09l3.57.73c1.3.24,2.51.48,3.73.73V63.49a20,20,0,0,1,.08-2.19c0-.73.08-1.46.08-2.19a17.28,17.28,0,0,1-2.11-1c-1-.49-1.86-1.06-2.67-1.54A10.78,10.78,0,0,1,58,55a7.82,7.82,0,0,1-2.11-3.25,3.65,3.65,0,0,1,.25-2.67,2.59,2.59,0,0,1,1.13-1.14,3.76,3.76,0,0,1,1.62-.4,4.21,4.21,0,0,1,2.84.89,11.05,11.05,0,0,1,2.68,2.84A10.15,10.15,0,0,1,65.75,56c1.7.89,3.56,1.78,5.59,2.6,1.22.48,2.27.89,3.41,1.29a25.48,25.48,0,0,0,3,1,22.2,22.2,0,0,0,2.19.56,2.21,2.21,0,0,0,1,0c.16-.08.24-.24.16-.56a5.31,5.31,0,0,0-.48-1,12.7,12.7,0,0,0-1.06-1.29c-.4-.49-.89-1.06-1.38-1.63s-1-1.21-1.46-1.7-.89-1-1.29-1.46-.81-.89-1.3-1.38a.61.61,0,0,1-.16-.32A1.1,1.1,0,0,0,74.34,51.9ZM54.56,61.63a2.76,2.76,0,0,0-1.3-.65,2.4,2.4,0,0,0-1-.08.44.44,0,0,0-.33.48A2.36,2.36,0,0,0,53,62.44a3.89,3.89,0,0,0,1.29.56c.49.17,1.14.41,1.79.57a7.48,7.48,0,0,0-.65-1ZM61.29,49.3a3.9,3.9,0,0,0-2.19-.73.38.38,0,0,0-.41.41,2,2,0,0,0,.25.89A8.08,8.08,0,0,0,59.58,51a6.28,6.28,0,0,0,.9,1.14,11.28,11.28,0,0,0,1.78,1.54c.73.57,1.62,1,2.51,1.62a11.59,11.59,0,0,0-.4-1.94,4.8,4.8,0,0,0-.81-1.71c-.33-.57-.73-1-1.06-1.46C62.18,50,61.77,49.63,61.29,49.3Z"/><path d="M79.37,46.14h.4a.61.61,0,0,1,.33.32c.48,1,1.05,1.87,1.54,2.84s.89,1.78,1.3,2.6c.16.32.24.64.4,1a2.17,2.17,0,0,1,.24,1,1.49,1.49,0,0,1,0,.89,1.42,1.42,0,0,1-.32.81,1.65,1.65,0,0,1-1.38.49,7.82,7.82,0,0,1-2.43-.49,23.3,23.3,0,0,1-3.65-1.62,12,12,0,0,1-3.16-2.51,7.47,7.47,0,0,1-.65-1,6.23,6.23,0,0,1-.32-.9,2.72,2.72,0,0,1,.24-1.62A1.93,1.93,0,0,1,73,47a2.45,2.45,0,0,1,1.06-.16,2.4,2.4,0,0,1,1.05.4c.89.57,1.14,1.79.89,3.49.41.24.81.49,1.38.81a11,11,0,0,0,1.62.89,8.4,8.4,0,0,0,1.54.73,2.68,2.68,0,0,0,1.14.33c.32,0,.49-.08.57-.33A1.92,1.92,0,0,0,82,51.9c-.32-.73-.81-1.63-1.29-2.52s-1-1.78-1.46-2.67a.65.65,0,0,1-.08-.33C79.21,46.22,79.29,46.14,79.37,46.14Zm-4.3,3.57V48.9a1.16,1.16,0,0,0-.16-.57c-.08-.16-.08-.25-.16-.33s-.08-.16-.17-.16a.5.5,0,0,0-.32-.16.28.28,0,0,0-.08.16A2.31,2.31,0,0,0,75.07,49.71Z"/><path d="M87.31,38.84c.09-.08.25,0,.41,0a1.1,1.1,0,0,1,.32.24l.25.49a8.27,8.27,0,0,0,.65,1.14,16.25,16.25,0,0,1,.81,1.62,13.3,13.3,0,0,1,.89,1.86c.16.41.4.89.65,1.46s.48,1.22.73,1.79a16.43,16.43,0,0,1,.4,1.7,1.28,1.28,0,0,1-.32,1.13c-.33.33-.81.33-1.46.09A8.72,8.72,0,0,1,88,48.49a30.3,30.3,0,0,1-2.27-2.27c.16.41.33.81.49,1.22a8.85,8.85,0,0,1,.4,1.37,6.37,6.37,0,0,1,.09,1.3,1.92,1.92,0,0,1-.49,1.06,2.8,2.8,0,0,1-.49.24,1.83,1.83,0,0,1-.89-.08,8.86,8.86,0,0,1-1.38-.57,9.76,9.76,0,0,1-1.94-1.3A8.48,8.48,0,0,1,79,46.79a2.57,2.57,0,0,1-.16-2.27,2.75,2.75,0,0,1,1.54-1.3,5.59,5.59,0,0,1,2.6-.08c-.41-.57-.73-1.06-1.14-1.62a.53.53,0,0,1,.08-.73,1.74,1.74,0,0,1,.81-.73,2.65,2.65,0,0,1,1.14-.25,1.31,1.31,0,0,1,1,.73c.16.25.41.57.65.9l.81,1.05c.33.41.65.81,1.06,1.38.81,1,1.54,1.78,2.1,2.43a7.23,7.23,0,0,0,1.38,1.22c.25.16.33,0,.25-.49A21.4,21.4,0,0,0,90,44.35c-.32-.64-.65-1.21-.89-1.78s-.57-1.13-.81-1.54-.57-1-.89-1.54a.55.55,0,0,1-.09-.32C87.15,38.92,87.23,38.84,87.31,38.84Zm-2.1,8.76A9.74,9.74,0,0,0,84.48,46a9.35,9.35,0,0,0-1-1.71h-.08A4.12,4.12,0,0,0,81.64,44a.5.5,0,0,0-.41.65,3.1,3.1,0,0,0,.65,1.22c.41.48.89,1,1.46,1.54.41.32.73.64,1.06.89a2.88,2.88,0,0,0,.81.48.2.2,0,0,0,.32-.16A2.44,2.44,0,0,0,85.21,47.6Z"/><path d="M96.56,32.84a.72.72,0,0,1,.4.08c.17.08.25.16.25.33l.24.73a16,16,0,0,0,.65,1.78c.24.73.57,1.62.81,2.51s.65,1.95.89,2.92c.73,2.35,1.22,4.3,1.54,5.84.08.33.08.65.16,1a4.22,4.22,0,0,1,.09,1.06,2.93,2.93,0,0,1-.17.89,1.78,1.78,0,0,1-.4.65q-.73.48-2.19-.24a19.41,19.41,0,0,1-3.08-2.11c-1.06-.89-2.19-1.95-3.49-3.25s-2.68-2.67-4.05-4.21S85.45,37.63,84.15,36a42.06,42.06,0,0,1-3.08-4.62,11.61,11.61,0,0,1-1.54-3.89,2.61,2.61,0,0,1,.81-2.76,2.58,2.58,0,0,1,1.3-.48,3.55,3.55,0,0,1,1.3,0,3.82,3.82,0,0,1,1.21.48,6.32,6.32,0,0,1,1.14.81,9.74,9.74,0,0,1,2.11,2.84A19,19,0,0,1,88.69,32c.16.73.25,1.38.33,2a15.7,15.7,0,0,1,0,1.94,1.61,1.61,0,0,1-.08.57c0,.16-.09.32-.09.57,1.38,1.86,2.84,3.57,4.3,5.27.57.65,1.22,1.3,1.79,1.94s1.21,1.3,1.86,1.87,1.14,1,1.7,1.54a8,8,0,0,0,1.3.89.51.51,0,0,0,.73-.16c.16-.24.08-.73,0-1.46A51.91,51.91,0,0,0,99,41.35c-.32-1-.65-1.94-1-2.83s-.57-1.79-.89-2.52-.57-1.54-.9-2.43a.36.36,0,0,1,0-.4C96.4,32.92,96.48,32.84,96.56,32.84ZM84.64,26.19c-.57-.48-1-.81-1.22-.81a.38.38,0,0,0-.4.41,5,5,0,0,0,.24,1.29c.16.57.41,1.14.65,1.79a19.65,19.65,0,0,0,.89,1.86c.33.65.65,1.14.89,1.62s.73,1.14,1.14,1.71L88,35.76A14.64,14.64,0,0,0,87.8,32a11.92,11.92,0,0,0-1.22-3.24A8.22,8.22,0,0,0,84.64,26.19Z"/><path d="M102.4,30.41a1.1,1.1,0,0,1,.24.32c.24.65.4,1.3.57,1.79s.32,1.13.48,1.86.33,1.38.49,2.11c.16.89.32,1.7.49,2.35s.16,1.3.24,1.79a3.4,3.4,0,0,1-.16,1.62,1.35,1.35,0,0,1-.65.81A1.31,1.31,0,0,1,103,42.9a4.11,4.11,0,0,1-1.37-1.14,18.92,18.92,0,0,1-2.44-3.32c-.4-.57-.73-1.22-1-1.79s-.65-1.13-1-1.62-.49-.89-.65-1.22l-.25-.48c-.08-.25,0-.41.25-.65a3.39,3.39,0,0,1,.89-.57A2.72,2.72,0,0,1,98.58,32a1.17,1.17,0,0,1,.9.73s.16.32.4,1,.73,1.46,1.22,2.44c1.46,2.59,2.27,4,2.67,3.89s.17-1.22-.4-3.65a15,15,0,0,0-.57-2c-.16-.65-.32-1.3-.49-1.78s-.32-1.14-.56-1.79v-.4c.08-.16.16-.16.24-.24A2.11,2.11,0,0,1,102.4,30.41Zm-6.73-3a1.39,1.39,0,0,0-1,.08,1,1,0,0,0-.56.73,1.35,1.35,0,0,0,.16,1,1,1,0,0,0,.73.57,1.12,1.12,0,0,0,.89-.08,1,1,0,0,0,.57-.73,1.09,1.09,0,0,0-.17-.89C96.23,27.73,96,27.57,95.67,27.41Z"/><path d="M115.13,25.79a.42.42,0,0,1,.32.16c.08.08.08.24.16.4v.49a7.12,7.12,0,0,1-.08,1.22,15.17,15.17,0,0,1-.16,1.7c-.08.65-.08,1.3-.16,1.95a27.6,27.6,0,0,1-.73,3.89c-.41,1.3-.89,2.11-1.62,2.35a1.07,1.07,0,0,1-1.22-.32,4,4,0,0,1-.73-1.06,8.76,8.76,0,0,1-.57-1.54q-.24-.86-.48-2c-.17-.73-.25-1.37-.41-2.1s-.24-1.22-.32-1.79-.25-1.13-.33-1.62-.32-1-.4-1.22-.25-.4-.33-.48a.25.25,0,0,1-.16-.08h-.24c-.25.08-.41.32-.65.65a5.74,5.74,0,0,0-.41,1.7,13.7,13.7,0,0,0,.08,3.08c.08,1.3.33,2.84.65,4.78a1.23,1.23,0,0,1-.16,1.06,2.12,2.12,0,0,1-.73.73,1.86,1.86,0,0,1-.89.24c-.33,0-.57-.08-.65-.4-.49-.9-.89-1.79-1.3-2.6s-.73-1.54-1-2.19-.57-1.38-.89-2.11a.85.85,0,0,1,.08-.89,2.07,2.07,0,0,1,.89-.57,3.13,3.13,0,0,1,1.22,0,1.2,1.2,0,0,1,.81.81,6,6,0,0,1,.32.9c.24.56.57,1.37,1,2.51l-.24-2a15,15,0,0,1-.08-1.86,10.94,10.94,0,0,1,.08-1.7,5.3,5.3,0,0,1,.24-1.3,2,2,0,0,1,.57-1.06,5,5,0,0,1,.89-.89,2.89,2.89,0,0,1,1.14-.48,3.58,3.58,0,0,1,1.3.08,3.06,3.06,0,0,1,1.21.89,3.75,3.75,0,0,1,.73,1.54,11.31,11.31,0,0,1,.41,2c.08.73.16,1.46.24,2.27.16,1.21.32,2.19.49,2.92s.32,1.13.48,1.21.33-.16.41-.73a24.93,24.93,0,0,0,.4-2.92,14,14,0,0,0,.17-1.94,12.2,12.2,0,0,0,.08-1.62c0-.49.08-1.06.08-1.63a.42.42,0,0,1,.16-.32C114.88,25.79,115,25.79,115.13,25.79Z"/><path d="M127.29,24.08l.24.25c.08.16,0,.24,0,.4a14.13,14.13,0,0,1-1.38,2.35c-.56.82-1.21,1.71-1.94,2.6.08.49.16,1.05.24,1.7s.08,1.38.16,2.11.08,1.54.08,2.27a20.78,20.78,0,0,1-.08,2.27,17,17,0,0,1-.24,2.11,8.15,8.15,0,0,1-.41,1.7,13,13,0,0,1-.89,2.19,3.91,3.91,0,0,1-1,1.38,2.11,2.11,0,0,1-1,.57,1.53,1.53,0,0,1-1.06-.17,2.23,2.23,0,0,1-.81-.73,3.69,3.69,0,0,1-.65-1.13,8.4,8.4,0,0,1-.4-3.24c.08-.81.24-1.63.4-2.44a10.75,10.75,0,0,1,.73-2.27c.33-.73.65-1.46,1-2.19s.82-1.37,1.22-2c-.08-.89-.24-1.71-.4-2.6s-.33-1.7-.57-2.59A15,15,0,0,1,120,29c-.16.73-.4,1.3-.57,1.86-.08.25-.24.49-.32.73s-.33.49-.49.73a1.79,1.79,0,0,1-.56.57.79.79,0,0,1-.73.16,2.09,2.09,0,0,1-1.63-1,6.23,6.23,0,0,1-1.21-2.76,6,6,0,0,1,0-3.4,6.08,6.08,0,0,1,.65-1.3,4.13,4.13,0,0,1,1-.81,2.18,2.18,0,0,1,2.19.24,4.54,4.54,0,0,1,1.38,1.38c0-.24.08-.49.08-.73a2.31,2.31,0,0,1,.08-.73.52.52,0,0,1,.16-.4l.49-.49c.24-.16.4-.32.65-.49a1.3,1.3,0,0,1,.73-.24.9.9,0,0,1,.64.08.79.79,0,0,1,.41.49,14.42,14.42,0,0,1,.32,1.62c.09.49.17,1.05.33,1.62s.24,1.3.32,1.95c.57-.73,1.06-1.46,1.54-2.11A7.82,7.82,0,0,0,126.48,24q.12-.24.24-.24A2.37,2.37,0,0,0,127.29,24.08Zm-8.43,17a6.62,6.62,0,0,0,.16,2.35,1.57,1.57,0,0,0,.73,1.06c.32.08.65-.08,1-.49a5.49,5.49,0,0,0,.89-2.19,12.31,12.31,0,0,0,.33-3.4,41.89,41.89,0,0,0-.33-5.19A22,22,0,0,0,119.75,37,22.64,22.64,0,0,0,118.86,41.11Zm0-10.62a15.71,15.71,0,0,0,.81-3.41,3.3,3.3,0,0,0-1-1.54.63.63,0,0,0-.81.17,2.45,2.45,0,0,0-.4,1.29,6.73,6.73,0,0,0,.08,1.79,8,8,0,0,1,.24,1c.08.41.25.65.33,1s.24.41.4.41S118.69,31,118.86,30.49Z"/><path d="M150.4,25.54a.63.63,0,0,1,.16.33c0,.16-.08.24-.16.4a8.35,8.35,0,0,1-1.3,1.06,4.91,4.91,0,0,1-1.3.57,8.36,8.36,0,0,1-1.38.32,8.94,8.94,0,0,1-1.46.16,52.55,52.55,0,0,1-2.27,7.46c-.73,1.79-1.46,3.24-2.1,4.46a10.78,10.78,0,0,1-2.44,3,5.26,5.26,0,0,1-3.08,1.46h0a2,2,0,0,1-1.86-1.46,7,7,0,0,1-.57-2.11,14.44,14.44,0,0,1-.08-2.67,9.36,9.36,0,0,1,.73-3,10.38,10.38,0,0,1,1.46-2.68,14.36,14.36,0,0,1,5.43-4.38A9.24,9.24,0,0,1,142,27.9c.33-1.87.57-3.73.73-5.52s.25-3.49.25-5c0,.09-.08.09-.08.17a25.12,25.12,0,0,1-4.3,5,9.38,9.38,0,0,1-5.76,2.35.42.42,0,0,1-.32-.16.61.61,0,0,1-.16-.32.46.46,0,0,1,.16-.33.61.61,0,0,1,.32-.16c3.25,0,6.08-2.27,9.08-6.81.57-.89,1.06-1.7,1.54-2.51s.82-1.54,1.14-2.27.65-1.38,1-2.19a.51.51,0,0,1,.65-.33.43.43,0,0,1,.33.17.42.42,0,0,1,.16.32s0,.41.08,1.3v3.32c0,1.38-.08,2.92-.24,4.7s-.41,3.57-.73,5.44c-.09.4-.17.89-.25,1.29s-.16.82-.24,1.3c.49-.08.89-.08,1.3-.16l1.21-.24a2.58,2.58,0,0,0,1.06-.49c.32-.24.65-.49,1-.81a.6.6,0,0,1,.33-.16C150.24,25.38,150.32,25.46,150.4,25.54Zm-17.27,12.9a11.51,11.51,0,0,0,0,2.35,4.31,4.31,0,0,0,.48,1.7,1.15,1.15,0,0,0,1,.65,2.57,2.57,0,0,0,1.54-.81A11.62,11.62,0,0,0,138.88,38a49,49,0,0,0,2.27-7.05l.25-1a4.1,4.1,0,0,0,.16-1,15.84,15.84,0,0,0-1.54.57c-.49.24-1.06.56-1.62.89a10.37,10.37,0,0,0-1.62,1.3,17.24,17.24,0,0,0-1.71,1.78,11.34,11.34,0,0,0-1.38,2.35C133.53,36.65,133.29,37.54,133.13,38.44Z"/><path d="M158.67,28.3c.08.16,0,.24,0,.41s-.16.24-.33.24a2.36,2.36,0,0,1-1.62.16c-.16-.08-.24-.08-.4-.16a1.85,1.85,0,0,0-.41-.24l-.32-.33a1.76,1.76,0,0,1-.33-.4,4.71,4.71,0,0,1-.4,1.29A5.46,5.46,0,0,1,153,31.79a6.43,6.43,0,0,1-1.46.73,2.74,2.74,0,0,1-1.38.08,3.63,3.63,0,0,1-1.37-.65,6.28,6.28,0,0,1-.9-1.14,6.88,6.88,0,0,1-.32-1.37,5.64,5.64,0,0,1,.24-1.55,4.12,4.12,0,0,1,.73-1.45,5.35,5.35,0,0,1,1.14-1.22,4,4,0,0,1,3.48-.65,2.7,2.7,0,0,1,1.3.65,12.39,12.39,0,0,1,1,1.13c.25.33.41.65.57.9a4.6,4.6,0,0,0,.57.64.9.9,0,0,0,.65.25,1.23,1.23,0,0,0,.73-.16.33.33,0,0,1,.4,0Zm-7.62.65a2.55,2.55,0,0,0,0,1.62.87.87,0,0,0,.81.57,1.89,1.89,0,0,0,1.13-.49,4.62,4.62,0,0,0,1.06-1.54,6,6,0,0,0,.32-1.13,2.3,2.3,0,0,0-.08-1.06,1.51,1.51,0,0,0-.41-.73,2.29,2.29,0,0,0-1,.41,3,3,0,0,0-.81.65,2.81,2.81,0,0,0-.57.81A1.77,1.77,0,0,0,151.05,29Z"/><path d="M171.4,32.92a.63.63,0,0,1,.16.33.42.42,0,0,1-.16.32L171,34a7.19,7.19,0,0,1-1.05.89c-.41.4-.89.81-1.46,1.3l-1.7,1.46a25.8,25.8,0,0,1-3.65,2.51,15.15,15.15,0,0,1-1.46.65,2,2,0,0,1-1.38,0,.08.08,0,0,1-.08-.08l-.08-.08a1.28,1.28,0,0,1-.57-1.22,7.61,7.61,0,0,1,.89-2.92c.16-.41.41-.81.65-1.3s.57-.89.89-1.46c-.4.33-.89.65-1.21,1s-.73.48-1.14.73a5.23,5.23,0,0,1-1.54.64,2.16,2.16,0,0,1-1.46-.08,2,2,0,0,1-1.38-1.54,7.55,7.55,0,0,1,1.14-4.38,17.15,17.15,0,0,1,1-1.7l.49-.73a1.2,1.2,0,0,1,1-.48,7.22,7.22,0,0,1,1.3.16,1.91,1.91,0,0,1,.89.65c.24.32.16.56-.08.89a6.3,6.3,0,0,0-.57.81,4.45,4.45,0,0,1-.57.81c-.16.32-.4.65-.56,1a6,6,0,0,0-.9,2.27c-.08.49.09.73.41.73a2.94,2.94,0,0,0,1.3-.48,12.7,12.7,0,0,0,1.94-1.46c.41-.41.9-.81,1.22-1.14l1.05-1.05a12.79,12.79,0,0,0,1-1.06,1.29,1.29,0,0,1,.56-.32,2.82,2.82,0,0,1,.82,0l.81.24a2,2,0,0,1,.73.49,1,1,0,0,1,.32.57.53.53,0,0,1-.16.56c-.33.41-.65.73-1,1.14s-.56.73-1,1.13-.73.9-1,1.38c-.73,1.06-1.38,1.87-1.79,2.6a3.52,3.52,0,0,0-.73,1.54c0,.24.25.24.73,0a20.45,20.45,0,0,0,2.52-1.87c.57-.48,1.13-1,1.62-1.46s1-.89,1.38-1.29.81-.81,1.38-1.3a.61.61,0,0,1,.4-.16A1.43,1.43,0,0,0,171.4,32.92Z"/><path d="M181.61,39.08a.34.34,0,0,1,0,.41.62.62,0,0,1-.32.32c-.73.41-1.46.73-2,1s-1.29.65-2.11,1-1.54.73-2.43,1.14c-.48.24-1.05.48-1.78.81a22.45,22.45,0,0,1-2.35.89,14.5,14.5,0,0,1-2.27.57,2.76,2.76,0,0,1-1.71-.17.82.82,0,0,1-.4-.48,2.07,2.07,0,0,1-.08-.73c.24-1.22,2-3.33,5.51-6,.73-.57,1.46-1.14,2.19-1.62s1.3-.9,1.78-1.22a10.79,10.79,0,0,1-1.94-.49,11.85,11.85,0,0,1-2.19-.89,2.92,2.92,0,0,1-1.7-2.43,4.06,4.06,0,0,1,.81-2.76,5.27,5.27,0,0,1,.89-1.05,3,3,0,0,1,1.05-.73,2.77,2.77,0,0,1,2.52-.16,2.49,2.49,0,0,1,1,.81,1.79,1.79,0,0,1,.24.81c0,1-.73,2.11-2.27,3.4a8.58,8.58,0,0,0-.81.73,3.72,3.72,0,0,1-.73.57,14.41,14.41,0,0,0,1.62.65,15.37,15.37,0,0,0,1.54.4c.49.09,1.06.17,1.63.25a.87.87,0,0,1,.4.08l.73.24a3.43,3.43,0,0,1,.81.41,4.06,4.06,0,0,1,.65.48.76.76,0,0,1,.24.57c0,.16-.16.33-.4.49a12.16,12.16,0,0,0-1.54,1c-.49.33-1.06.65-1.62,1s-1.22.81-1.87,1.22c-1.46,1-2.59,1.86-3.32,2.51a4.37,4.37,0,0,0-1.3,1.38c-.08.25.24.25,1,0s1.87-.73,3.49-1.46c.81-.4,1.62-.73,2.35-1.13s1.46-.73,2-1,1.29-.64,2-1a.93.93,0,0,1,.41-.08C181.37,38.84,181.53,38.92,181.61,39.08Zm-8.43-8.18.73-.73a5.47,5.47,0,0,0,.81-1.14,1.93,1.93,0,0,0,.33-1.05c0-.33-.25-.57-.73-.65a1.19,1.19,0,0,0-.89.16,2.63,2.63,0,0,0-.82.81c-.24.32-.48.73-.73,1.14l-.48,1.21a6.17,6.17,0,0,0-.16,1,.78.78,0,0,0,.16.57,8.29,8.29,0,0,1,.73-.57A6,6,0,0,0,173.18,30.9Z"/><path d="M194,50a.38.38,0,0,1,0,.41c-.08.16-.16.24-.32.24l-.57.16c-.33.08-.81.24-1.38.41s-1.22.32-1.95.48-1.46.41-2.27.57a32.75,32.75,0,0,1-4.7.73c-1.7.08-2.84-.16-3.49-.73a1.29,1.29,0,0,1-.4-1.38,3.2,3.2,0,0,1,.65-1.13A4.86,4.86,0,0,1,181,48.65a17.68,17.68,0,0,1,1.86-1.21c.65-.41,1.38-.81,2.11-1.22s1.22-.65,1.78-1,1.06-.65,1.54-1a8,8,0,0,0,1.14-.89c.16-.24.32-.4.32-.48v-.17c0-.08-.08-.08-.16-.16a1.9,1.9,0,0,0-1.13-.32,8.4,8.4,0,0,0-2.11.32,29.62,29.62,0,0,0-3.41,1.22,43.7,43.7,0,0,0-4.86,2.43,1.55,1.55,0,0,1-1.22.24,4.37,4.37,0,0,1-1.22-.4,2.09,2.09,0,0,1-.81-.81c-.16-.33-.16-.57,0-.73.73-.81,1.46-1.54,2.11-2.19s1.3-1.3,1.87-1.79,1.13-1,1.78-1.7a1,1,0,0,1,1.05-.24,2.24,2.24,0,0,1,1.14.65,2.33,2.33,0,0,1,.65,1.13,1.09,1.09,0,0,1-.41,1.14s-.24.24-.73.65-1.21,1-2.19,1.94c.65-.32,1.3-.65,2-1s1.38-.57,2-.89,1.3-.49,1.94-.65a14.73,14.73,0,0,1,1.63-.33,5.13,5.13,0,0,1,1.54.08,4.24,4.24,0,0,1,1.46.57,3.63,3.63,0,0,1,1.21,1,2.73,2.73,0,0,1,.65,1.29,2.61,2.61,0,0,1-.24,1.54,3.82,3.82,0,0,1-1.22,1.38,21.9,21.9,0,0,1-1.94,1.22c-.73.4-1.55.73-2.36,1.13a22.52,22.52,0,0,0-2.92,1.62c-.64.49-1,.73-1,1s.32.24,1.14.16a28.9,28.9,0,0,0,3.48-.73c.73-.16,1.46-.41,2.19-.57s1.3-.4,1.87-.56,1.13-.33,1.78-.57a.53.53,0,0,1,.49,0Z"/><path d="M200.34,58c0,.16,0,.32-.16.4a.61.61,0,0,1-.4.16c-1.3,0-2.6.09-3.89.09s-2.44,0-3.57-.09a7.22,7.22,0,0,1-1.3-.16c-.49-.08-.89-.16-1.3-.24a6.4,6.4,0,0,1-1.21-.41,2.74,2.74,0,0,1-1-.73,1.63,1.63,0,0,1-.32-1.62,7.16,7.16,0,0,1,1.13-2.19,16.35,16.35,0,0,1,2.92-2.75,12.58,12.58,0,0,1,3.9-1.87,9,9,0,0,1,1.37-.16,3.21,3.21,0,0,1,1.22.16,4.37,4.37,0,0,1,2,1,3.19,3.19,0,0,1,1.05,1.54,1.81,1.81,0,0,1-.08,1.14,2.12,2.12,0,0,1-.81.89c-1,.57-2.51.25-4.62-.89-.41.24-.81.57-1.38.89a17.43,17.43,0,0,0-1.54,1.14c-.49.4-.89.73-1.3,1.13a3,3,0,0,0-.73,1,.63.63,0,0,0,.24.73,3.48,3.48,0,0,0,1.71.32h3.48c1.22,0,2.52-.08,3.81-.08a.6.6,0,0,1,.49.16Zm-3.73-6.17c.41.17.82.33,1.06.41a4.12,4.12,0,0,0,.73.16h.49c.08,0,.16-.08.24-.08s.32-.16.32-.24a1,1,0,0,0-.24-.16A3.08,3.08,0,0,0,196.61,51.81Z"/><path d="M209.26,73.3c0,.16-.08.24-.24.41a.89.89,0,0,1-.49.08,36.54,36.54,0,0,1-4.7-1.22c-1.46-.48-2.84-1-4.13-1.54h-.08c-5.84,2-10.22,2.6-13,2.35a13.28,13.28,0,0,1-2.76-.48,10.21,10.21,0,0,1-2-.81c-.25-.17-.41-.33-.65-.49l-.49-.49a2.29,2.29,0,0,1-.32-1.21A3.17,3.17,0,0,1,182,67.71a9.13,9.13,0,0,1,3.89-1.3,13.25,13.25,0,0,1,2.52,0,12.11,12.11,0,0,1,2.43.41c.81.16,1.62.4,2.43.64s1.62.57,2.43.9c.65-.25,1.22-.49,1.79-.65.89-.41,1.7-.73,2.43-1.06s1.46-.65,2.11-1c-.57,0-1.14.08-1.79.08a19.22,19.22,0,0,1-4-.32,5,5,0,0,1-3.08-1.71,2.56,2.56,0,0,1-.33-2.51c.49-1,1.63-2,3.65-2.84a14.71,14.71,0,0,1,1.87-.73,8.69,8.69,0,0,1,.89-.24,1.45,1.45,0,0,1,1.22.32,2.75,2.75,0,0,1,.89,1.06,1.9,1.9,0,0,1,.24,1.3,1.12,1.12,0,0,1-.89.89c-.16.08-.41.08-.65.16s-.49.16-.81.24a9.29,9.29,0,0,0-1.05.41,5.82,5.82,0,0,0-2.19,1.3c-.33.4-.33.64-.08.89a3.15,3.15,0,0,0,1.54.56,12.1,12.1,0,0,0,2.59.17c.65,0,1.22-.08,1.78-.08a11.23,11.23,0,0,1,1.54-.17l1.55-.24c.24-.08.48,0,.89.32a4,4,0,0,1,1,1.06,3,3,0,0,1,.57,1.38c.08.48,0,.81-.33,1-.65.32-1.21.57-1.78.81s-1.22.57-2,.89-1.54.65-2.43,1c1.14.4,2.27.81,3.49,1.21a27.3,27.3,0,0,0,3.89,1,.73.73,0,0,1,.49.24C209.18,73,209.26,73.14,209.26,73.3Zm-26.35-4.94c-.65.4-1,.73-1,1s.16.49.57.65a4.58,4.58,0,0,0,1.46.4,14.6,14.6,0,0,0,1.78.17,16.18,16.18,0,0,0,3.65-.33,31.5,31.5,0,0,0,5-1.38,30.54,30.54,0,0,0-4.14-1.29,13.89,13.89,0,0,0-4.13-.33A7.25,7.25,0,0,0,182.91,68.36Z"/></svg>