<?xml version="1.0" encoding="utf-8"?>
<!-- Generator: Adobe Illustrator 22.1.0, SVG Export Plug-In . SVG Version: 6.00 Build 0)  -->
<svg version="1.1" id="Layer_1" xmlns="http://www.w3.org/2000/svg" xmlns:xlink="http://www.w3.org/1999/xlink" x="0px" y="0px"
	 viewBox="0 0 256 256" style="enable-background:new 0 0 256 256;" xml:space="preserve">
<style type="text/css">
	.st0{fill:#FFFFFF;}
	.st1{fill:#231F20;}
</style>
<path class="st0" d="M208.8,49.3c1.6,0.7,18.6-3.3,21.5-8.7S221.6,58,211.2,63c0,0,21.6-7.9,23.6-8.7c2.1-0.8-16.2,17-18.2,18.2
	c-2.1,1.2,2.9,138.9-143.4,80.4c-2.4-1,37.3,5,51.8-12.9c0,0-20.7-1.1-31.1-20l11.6-2.3c0,0-21.5-7.9-22.8-29.8
	c0,0,12.4,2.9,15.7,2.9c3.3,0-24.5-9.1-11.2-42.6c0,0,41,39.8,66.2,33.6C153.4,81.6,148.6,22.7,208.8,49.3z"/>
<path class="st1" d="M182.7,73.7c1.6,0.7,18.6-3.3,21.5-8.7s-8.7,17.4-19.1,22.4c0,0,21.6-7.9,23.6-8.7c2.1-0.8-16.2,17-18.2,18.2
	c-2.1,1.2,2.9,138.9-143.4,80.4c-2.4-1,37.3,5,51.8-12.9c0,0-20.7-1.1-31.1-20l11.6-2.3c0,0-21.5-7.9-22.8-29.8
	c0,0,12.4,2.9,15.7,2.9S48,106.1,61.2,72.6c0,0,41,39.8,66.2,33.6C127.4,106.1,122.6,47.1,182.7,73.7z"/>
</svg>
