<svg xmlns="http://www.w3.org/2000/svg" id="Layer_1" viewBox="0 0 256 256" width="256" height="256"><defs><style>.cls-1{fill:#231f20}.cls-2{fill:#fff}</style></defs><path d="M125.84 209.66A83.64 83.64 0 1 1 209.48 126a83.73 83.73 0 0 1-83.64 83.66zm0-166.28A82.64 82.64 0 1 0 208.48 126a82.73 82.73 0 0 0-82.64-82.62z" class="cls-1"/><path d="M165.34 87.07c1.06.47 12.68-2.26 14.65-5.92S174.08 93 167 96.37c0 0 14.66-5.35 16.07-5.92s-11 11.56-12.41 12.41 2 94.43-97.53 54.68c-1.66-.66 25.37 3.39 35.23-8.74 0 0-14.09-.76-21.14-13.63l7.89-1.59s-14.65-5.35-15.5-20.29c0 0 8.46 2 10.71 2s-16.63-6.2-7.61-29c0 0 27.91 27.07 45 22.84.01-.07-3.25-40.13 37.63-22.06z" class="cls-2"/><path d="M125.84 211.66A85.64 85.64 0 1 1 211.48 126a85.74 85.74 0 0 1-85.64 85.66zm0-166.28A80.64 80.64 0 1 0 206.48 126a80.73 80.73 0 0 0-80.64-80.62z" class="cls-1"/><path d="M165.34 87.07c1.06.47 12.68-2.26 14.65-5.92S174.08 93 167 96.37c0 0 14.66-5.35 16.07-5.92s-11 11.56-12.41 12.41 2 94.43-97.53 54.68c-1.66-.66 25.37 3.39 35.23-8.74 0 0-14.09-.76-21.14-13.63l7.89-1.59s-14.65-5.35-15.5-20.29c0 0 8.46 2 10.71 2s-16.63-6.2-7.61-29c0 0 27.91 27.07 45 22.84.01-.07-3.25-40.13 37.63-22.06z" class="cls-1"/></svg>